<?xml version="1.0" encoding="utf-8"?>
<!-- Generator: Adobe Illustrator 24.0.1, SVG Export Plug-In . SVG Version: 6.00 Build 0)  -->
<svg version="1.1" id="Layer_1" xmlns="http://www.w3.org/2000/svg" xmlns:xlink="http://www.w3.org/1999/xlink" x="0px" y="0px"
	 viewBox="0 0 44 44" style="enable-background:new 0 0 44 44;" xml:space="preserve">
<style type="text/css">
	.st0{fill:url(#SVGID_1_);}
</style>
<linearGradient id="SVGID_1_" gradientUnits="userSpaceOnUse" x1="-4.439" y1="50.7133" x2="45.4634" y2="-3.4818">
	<stop  offset="0" style="stop-color:#5A31F5"/>
	<stop  offset="1" style="stop-color:#5A31F5"/>
</linearGradient>
<path class="st0" d="M37,0H7C3.1,0,0,3.1,0,7v30c0,3.9,3.1,7,7,7h30c3.9,0,7-3.1,7-7V7C44,3.1,40.9,0,37,0z M12.4,12h19.2
	c0.5,0,1,0.1,1.4,0.4l-10.1,9.3C22.6,21.9,22.3,22,22,22s-0.6-0.1-0.8-0.3L11,12.4C11.4,12.1,11.9,12,12.4,12z M34,27.6
	c0,1-0.4,1.9-1.1,2.5c-0.7,0.7-1.6,1.1-2.5,1.1H13.6c-1,0-1.9-0.4-2.5-1.1c-0.7-0.7-1.1-1.6-1.1-2.5V14.7l10.4,9.5
	c0.4,0.4,1,0.6,1.6,0.6c0.6,0,1.2-0.2,1.6-0.6L34,14.7V27.6z"/>
</svg>
