<svg width="166" height="37" viewBox="0 0 166 37" fill="none" xmlns="http://www.w3.org/2000/svg">
<path d="M14.1406 3.20312L16.6562 3.25L18.2031 3.28125C18.7656 3.28125 19.3021 3.31771 19.8125 3.39062C20.1562 3.42188 20.6771 3.52083 21.375 3.6875C22.3229 3.90625 23.2396 4.21875 24.125 4.625C24.9271 5 25.6562 5.44792 26.3125 5.96875C26.9062 6.4375 27.4167 6.96354 27.8438 7.54688C28.2812 8.13021 28.6198 8.71875 28.8594 9.3125C29.3802 10.6042 29.6406 11.8542 29.6406 13.0625C29.6406 14.0312 29.4844 14.9792 29.1719 15.9062C29.0052 16.3854 28.8333 16.8177 28.6562 17.2031C28.4792 17.5781 28.2656 17.9583 28.0156 18.3438C27.5573 19.0625 27.0052 19.7865 26.3594 20.5156L24.9688 22.1094C24.3229 22.8281 23.5156 23.4896 22.5469 24.0938L20.9844 24.9531C20.4531 25.2031 19.8906 25.4323 19.2969 25.6406C18.7031 25.8594 18.099 26.0521 17.4844 26.2188C16.8802 26.3854 16.2552 26.5365 15.6094 26.6719C15.0365 26.776 14.4479 26.8594 13.8438 26.9219C13.2396 26.9844 12.6667 27.0156 12.125 27.0156C9.61458 27.0156 7.82812 26.9167 6.76562 26.7188C5.71354 26.5312 5.1875 26.1927 5.1875 25.7031C5.1875 24.9115 5.34896 24.5156 5.67188 24.5156L6.20312 24.5938L6.5625 24.6562L6.8125 24.6719C7.55208 24.6719 8.0625 24.4167 8.34375 23.9062C8.625 23.3854 8.76562 22.651 8.76562 21.7031L8.71875 19.9688L8.64062 17.8906L8.67188 16.2031L8.76562 14.75L8.85938 13.1875L8.92188 10.9375L8.9375 9.78125C8.9375 9.42708 8.96354 9.02604 9.01562 8.57812C9.01562 8.36979 9.01562 8.23438 9.01562 8.17188C9.02604 8.09896 9.07812 7.8125 9.17188 7.3125C9.19271 7.15625 9.22917 6.92708 9.28125 6.625C9.33333 6.32292 9.38542 6.03646 9.4375 5.76562C8.15625 5.76562 7.11979 5.82292 6.32812 5.9375C5.53646 6.05208 4.91146 6.19792 4.45312 6.375C4.29688 6.42708 3.84375 6.64583 3.09375 7.03125C2.33333 7.40625 1.77083 7.59375 1.40625 7.59375C1.25 7.59375 1.10938 7.51562 0.984375 7.35938C0.859375 7.20312 0.796875 7.04688 0.796875 6.89062C0.796875 6.06771 1.60938 5.40625 3.23438 4.90625C3.93229 4.70833 4.75521 4.51042 5.70312 4.3125C6.65104 4.11458 7.66146 3.92708 8.73438 3.75C11.3073 3.38542 13.1094 3.20312 14.1406 3.20312ZM11.8125 5.3125L11.5469 6.10938L11.3125 7.04688L11.1094 8.17188C11.026 8.77604 10.9844 9.28646 10.9844 9.70312L10.9219 11.1562C10.9219 11.75 10.9062 12.2969 10.875 12.7969C10.8438 13.2969 10.8125 13.8438 10.7812 14.4375L10.7656 15.2969L10.75 16.0625L10.7969 17.9219L10.8594 19.2969L10.9844 21.0938C10.9844 22.125 10.8542 23.4271 10.5938 25C10.9167 25.0417 11.2656 25.0781 11.6406 25.1094C12.0156 25.1406 12.3594 25.1562 12.6719 25.1562C13.276 25.1562 13.8333 25.1302 14.3438 25.0781C14.8542 25.026 15.3906 24.9323 15.9531 24.7969L17.5938 24.375C18.1667 24.1979 18.7031 24 19.2031 23.7812C20.2448 23.3438 21.1927 22.8125 22.0469 22.1875C25.6927 19.5729 27.5156 16.6458 27.5156 13.4062C27.5156 11.9792 27.1667 10.6042 26.4688 9.28125C26.0625 8.5 25.5677 7.86458 24.9844 7.375C24.4115 6.875 23.7083 6.47396 22.875 6.17188C22.0521 5.86979 20.8906 5.57292 19.3906 5.28125C18.9323 5.19792 18.4375 5.13542 17.9062 5.09375C17.375 5.05208 16.7396 5.03125 16 5.03125C14.5521 5.03125 13.1562 5.125 11.8125 5.3125ZM38.0625 13.6719L38.4375 13.8594C38.5625 13.9115 38.6771 13.9844 38.7812 14.0781C38.8438 14.1406 38.8802 14.2292 38.8906 14.3438L38.9062 14.6406L38.9219 14.9844C38.9219 15.5781 38.6354 16.1615 38.0625 16.7344L37.3594 17.4062L36.4375 18.375C36.2812 18.5625 36.1927 18.724 36.1719 18.8594C36.1719 18.9531 36.3646 19.0365 36.75 19.1094H37.6406C37.8281 19.1094 38.026 19.1354 38.2344 19.1875L38.6875 19.3125C39.1146 19.4062 39.5677 19.6354 40.0469 20C40.526 20.3542 40.9479 20.9115 41.3125 21.6719C41.6875 22.4219 41.875 23.3698 41.875 24.5156C41.875 25.7031 41.3073 27.5729 40.1719 30.125C39.5365 31.5833 38.9948 32.6927 38.5469 33.4531C38.0469 34.349 37.3542 35.1615 36.4688 35.8906C35.5833 36.6302 34.5469 37 33.3594 37C32.1302 37 31.1771 36.6094 30.5 35.8281C29.8229 35.0469 29.2344 33.9219 28.7344 32.4531L28.4062 30.4062L28.0938 28.2344C28.0938 27.9323 28.2083 27.6302 28.4375 27.3281C28.5521 27.1823 28.6615 27.0729 28.7656 27C28.8698 26.9271 28.9896 26.8906 29.125 26.8906C29.5104 26.8906 29.7656 27.026 29.8906 27.2969C29.9948 27.5885 30.0469 28.0729 30.0469 28.75C30.0469 28.9375 30.0104 29.1562 29.9375 29.4062L29.8281 30.0625C29.8281 30.7292 29.974 31.474 30.2656 32.2969C30.5469 33.1198 30.9844 33.8385 31.5781 34.4531C32.1719 35.0677 32.8698 35.375 33.6719 35.375C34.1615 35.375 34.7292 35.1875 35.375 34.8125C36.0208 34.4479 36.6771 33.7917 37.3438 32.8438C37.6667 32.3854 37.9635 31.849 38.2344 31.2344C38.5156 30.6198 38.776 29.9062 39.0156 29.0938C39.0781 28.875 39.2344 28.4844 39.4844 27.9219L39.8125 27.1406L40.0625 26.3906C40.1979 25.9115 40.2656 25.3802 40.2656 24.7969C40.2656 21.901 38.8281 20.4531 35.9531 20.4531C35.7344 20.4531 35.5833 20.4635 35.5 20.4844L35.0781 20.5156L34.7344 20.5312L34.3438 20.5469C33.9479 20.5469 33.7344 20.4635 33.7031 20.2969C33.7031 19.9531 33.8229 19.5521 34.0625 19.0938C34.3125 18.625 34.8542 17.9688 35.6875 17.125L36.2188 16.6406C36.375 16.5156 36.5052 16.3698 36.6094 16.2031C36.724 16.0365 36.7812 15.8542 36.7812 15.6562C36.7812 15.4375 36.6406 15.224 36.3594 15.0156C36.0885 14.7969 35.7917 14.6875 35.4688 14.6875C34.875 14.6875 34.4219 14.75 34.1094 14.875C33.8073 15 33.4635 15.1719 33.0781 15.3906C32.7031 15.6094 32.401 15.7188 32.1719 15.7188C32.0885 15.7188 32.0052 15.6615 31.9219 15.5469C31.8594 15.4323 31.8281 15.3177 31.8281 15.2031C31.8281 14.849 32.0104 14.5208 32.375 14.2188C32.7396 13.9062 33.2448 13.6562 33.8906 13.4688C34.5365 13.2812 35.2448 13.1875 36.0156 13.1875C36.7969 13.1875 37.4792 13.349 38.0625 13.6719ZM51.8906 0.296875C52.599 0.296875 53.1979 0.494792 53.6875 0.890625C54.1771 1.28646 54.5417 1.8125 54.7812 2.46875C55.0312 3.125 55.1562 3.78646 55.1562 4.45312C55.1562 4.77604 55.1354 5.08333 55.0938 5.375C55.0521 5.65625 54.9688 6.01562 54.8438 6.45312C54.6354 7.22396 54.2396 8.05729 53.6562 8.95312C53.0729 9.84896 52.2135 10.724 51.0781 11.5781C50.5885 11.9531 49.9635 12.3385 49.2031 12.7344C48.5677 13.0573 47.7917 13.3802 46.875 13.7031C46.7188 14.6615 46.6406 15.6302 46.6406 16.6094L46.6875 17L46.8594 17.6406L47.1562 18.7812C47.375 19.6562 47.5833 20.3594 47.7812 20.8906C47.9896 21.4219 48.3594 21.9271 48.8906 22.4062C49.4323 22.875 50.1458 23.1094 51.0312 23.1094C51.4167 23.1094 51.8698 23.0312 52.3906 22.875C52.9219 22.7188 53.4115 22.3698 53.8594 21.8281C54.3177 21.276 54.5469 20.474 54.5469 19.4219C54.5469 18.6719 54.3802 18.0312 54.0469 17.5C53.7135 16.9583 53.2917 16.5573 52.7812 16.2969C52.2708 16.0365 51.7917 15.9062 51.3438 15.9062C51.1667 15.9062 51 15.9271 50.8438 15.9688C50.6875 16.0104 50.4896 16.0938 50.25 16.2188C49.8646 16.3958 49.5469 16.625 49.2969 16.9062L49.1094 17.1562L48.8281 17.5938C48.6198 17.9375 48.4375 18.1094 48.2812 18.1094C47.8125 18.1094 47.5781 17.7708 47.5781 17.0938C47.5781 16.2083 48.0104 15.4948 48.875 14.9531C49.3229 14.6823 49.7708 14.4792 50.2188 14.3438C50.6667 14.2083 51.151 14.1406 51.6719 14.1406C52.776 14.1406 53.8281 14.4792 54.8281 15.1562C55.8385 15.8333 56.3438 17.3333 56.3438 19.6562C56.3438 20.0521 56.3073 20.4531 56.2344 20.8594C56.1615 21.2656 56.0469 21.6719 55.8906 22.0781C55.6094 22.8594 55.0521 23.5365 54.2188 24.1094C53.3958 24.6823 52.2448 24.9688 50.7656 24.9688C49.6823 24.9688 48.7448 24.6667 47.9531 24.0625C47.1719 23.4479 46.5469 22.7135 46.0781 21.8594C45.974 21.651 45.8802 21.4583 45.7969 21.2812C45.7135 21.1042 45.625 20.8958 45.5312 20.6562L45.25 19.6719L45.1406 18.9531C45.1406 18.8177 45.0885 18.5312 44.9844 18.0938L44.8125 16.9531L44.75 15.9375C44.75 15.7188 44.7708 15.4479 44.8125 15.125C44.8542 14.8021 44.9219 14.4427 45.0156 14.0469C44.5885 14.1406 44.099 14.1875 43.5469 14.1875C43.1719 14.1875 42.8229 14.1719 42.5 14.1406C42.1667 14.1094 41.8281 14.0521 41.4844 13.9688C40.8281 13.8229 40.2812 13.6198 39.8438 13.3594C39.4062 13.0885 39.1875 12.7969 39.1875 12.4844C39.1875 12.1719 39.2812 11.7708 39.4688 11.2812C39.6562 10.7812 39.8802 10.5312 40.1406 10.5312C40.2969 10.5312 40.4792 10.6719 40.6875 10.9531C40.9688 11.3594 41.4115 11.6927 42.0156 11.9531C42.6719 12.1823 43.2969 12.2969 43.8906 12.2969C44.4531 12.2969 44.9219 12.2188 45.2969 12.0625C45.401 11.0417 45.526 10.0729 45.6719 9.15625C45.8177 8.22917 45.9948 7.33333 46.2031 6.46875C46.6094 4.80208 47.276 3.35938 48.2031 2.14062C49.1302 0.911458 50.3594 0.296875 51.8906 0.296875ZM47.0938 11.75C48.0729 11.4792 49.0208 10.9948 49.9375 10.2969C50.8542 9.59896 51.6146 8.78646 52.2188 7.85938C52.8333 6.93229 53.1406 6.01042 53.1406 5.09375C53.1406 4.16667 52.9844 3.43229 52.6719 2.89062C52.3594 2.34896 51.9844 2.07812 51.5469 2.07812C51.0573 2.07812 50.5365 2.36979 49.9844 2.95312C49.4427 3.52604 48.9635 4.29167 48.5469 5.25C48.1302 6.19792 47.8177 7.28646 47.6094 8.51562L47.5312 9.26562L47.4844 9.89062L47.3906 10.5312C47.3802 10.625 47.349 10.7656 47.2969 10.9531C47.2552 11.1406 47.1875 11.4062 47.0938 11.75ZM62.7656 13.1875C63.2552 13.1875 63.5781 13.2135 63.7344 13.2656C63.8906 13.2969 64.2135 13.5312 64.7031 13.9688L65.75 14.8906C66.4583 15.4948 67.0052 16.0833 67.3906 16.6562C67.7865 17.2292 67.9844 18.0365 67.9844 19.0781C67.9844 20.151 67.776 21.0938 67.3594 21.9062C66.9531 22.7083 66.4375 23.3854 65.8125 23.9375C65.1979 24.4896 64.5573 24.9115 63.8906 25.2031C63.224 25.4948 62.7031 25.6406 62.3281 25.6406C60.6823 25.6406 59.6198 25.125 59.1406 24.0938C58.6615 23.0521 58.4219 21.8385 58.4219 20.4531L58.4375 18.6406L58.5156 17.9219L58.7656 16.7031C59.2656 14.3594 60.599 13.1875 62.7656 13.1875ZM62.6094 14.9531C62.474 14.9531 62.2396 15.0417 61.9062 15.2188C61.5729 15.3958 61.3073 15.5833 61.1094 15.7812C60.5573 16.3333 60.2812 17.3021 60.2812 18.6875V19.4844C60.2812 19.6198 60.2812 19.7552 60.2812 19.8906C60.3125 20.0365 60.3333 20.1406 60.3438 20.2031L60.4844 20.625L60.6406 21.1094L60.6875 21.4688C60.6875 21.6354 60.6615 21.8021 60.6094 21.9688L60.5312 22.375C60.5312 22.6667 60.6771 22.9583 60.9688 23.25C61.2604 23.5208 61.6354 23.6562 62.0938 23.6562C62.625 23.6562 63.2083 23.4635 63.8438 23.0781C64.4896 22.6823 65.0365 22.1198 65.4844 21.3906C65.9323 20.6615 66.1562 19.8281 66.1562 18.8906C66.1562 18.6719 66.1302 18.4635 66.0781 18.2656C66.026 18.0677 65.9323 17.8281 65.7969 17.5469C65.5677 17.0469 65.3438 16.6823 65.125 16.4531C64.9062 16.2135 64.5208 15.9062 63.9688 15.5312C63.4271 15.1458 62.974 14.9531 62.6094 14.9531ZM71.7812 14.5625C72.2917 14.5625 72.6302 14.6823 72.7969 14.9219C72.849 15.0052 72.901 15.1562 72.9531 15.375C73.0156 15.5833 73.0469 15.8021 73.0469 16.0312L73.0312 17.2031L73.0156 18.2812L73.0312 18.7812L73.0469 19.2656C73.3698 19.2656 73.9323 19.1406 74.7344 18.8906C75.5365 18.6406 76.125 18.3906 76.5 18.1406C76.8854 17.8802 77.1302 17.6198 77.2344 17.3594L77.3438 16.9531L77.4688 16.1719C77.5208 15.7865 77.6354 15.5052 77.8125 15.3281C77.9896 15.1406 78.3438 15.0469 78.875 15.0469C78.9896 15.0469 79.0781 15.125 79.1406 15.2812L79.4375 16.5781C79.5833 17.3073 79.7604 17.9896 79.9688 18.625L80.0938 19.1719C80.1146 19.276 80.2344 19.5521 80.4531 20L81.4062 21.8281C81.5729 22.1302 81.8698 22.4167 82.2969 22.6875C82.7135 22.9271 83.1198 23.0469 83.5156 23.0469C84.1406 23.0469 84.6667 22.9219 85.0938 22.6719C85.5312 22.4219 86.0938 22.0573 86.7812 21.5781C87.4688 21.0885 87.9271 20.8438 88.1562 20.8438C88.2708 20.8438 88.3698 20.9062 88.4531 21.0312C88.5469 21.1458 88.6094 21.2812 88.6406 21.4375C88.6406 21.9375 88.3698 22.4479 87.8281 22.9688C87.2969 23.4792 86.6042 23.901 85.75 24.2344C84.8958 24.5677 84.0781 24.7344 83.2969 24.7344C82.8906 24.7344 82.5469 24.7135 82.2656 24.6719C81.9844 24.6302 81.6979 24.5521 81.4062 24.4375C80.9271 24.25 80.4583 23.8281 80 23.1719C79.5833 22.5573 79.1354 21.5677 78.6562 20.2031L78.4688 19.5312C78.4062 19.2812 78.3281 19.0625 78.2344 18.875C78.151 18.6875 78.0573 18.5938 77.9531 18.5938C77.8594 18.5938 77.6875 18.7188 77.4375 18.9688C77.1875 19.2188 76.9427 19.4167 76.7031 19.5625L76.5156 19.6406L76.3125 19.7188L76.0625 19.8438L75.8125 19.9688L75.2656 20.2188L74.6406 20.3281L73.4375 20.5156C73.3333 21.1198 73.2812 21.651 73.2812 22.1094C73.2812 22.5573 73.3646 22.9844 73.5312 23.3906C73.7083 23.7969 73.7969 24.1927 73.7969 24.5781C73.7969 24.7969 73.5833 24.9062 73.1562 24.9062C72.75 24.9062 72.4323 24.7865 72.2031 24.5469C71.9844 24.3073 71.875 23.849 71.875 23.1719V22.1094C71.8438 21.8802 71.8021 21.7188 71.75 21.625C71.7083 21.5312 71.6406 21.2552 71.5469 20.7969L71.0469 20.875L70.5625 20.9062C69.8958 20.9062 69.5625 20.5833 69.5625 19.9375C69.5625 19.5729 69.8646 19.3906 70.4688 19.3906L71.4531 19.4219L71.4844 15.625C71.4844 15.4896 71.4583 15.3542 71.4062 15.2188L71.3281 14.8906C71.3281 14.8073 71.3646 14.7448 71.4375 14.7031C71.5208 14.651 71.6354 14.6042 71.7812 14.5625ZM89.0312 13.5781C89.5312 13.5781 89.8542 13.7135 90 13.9844C90.1458 14.2448 90.2188 14.6302 90.2188 15.1406L90.1719 16.2188L90.0938 17.4688L89.9531 19.2344L91.5469 19.1562C91.9844 19.1562 92.3281 19.1406 92.5781 19.1094C92.8281 19.0677 93.0417 19.0052 93.2188 18.9219C93.3958 18.8385 93.5573 18.6406 93.7031 18.3281C93.8281 18.026 93.9844 17.5104 94.1719 16.7812C94.2656 16.4167 94.3281 16.1823 94.3594 16.0781C94.4531 15.7344 94.5469 15.4635 94.6406 15.2656C94.7448 15.0677 95.0521 14.7292 95.5625 14.25C95.9375 13.9062 96.2969 13.651 96.6406 13.4844C97.0156 13.349 97.4635 13.2812 97.9844 13.2812C98.2552 13.2812 98.4583 13.2865 98.5938 13.2969C98.7292 13.3073 98.8698 13.3333 99.0156 13.375C99.1615 13.4167 99.2917 13.4583 99.4062 13.5C99.5312 13.5417 99.6406 13.5938 99.7344 13.6562L100.453 14.0469L101.203 14.3594C101.38 14.4427 101.552 14.5938 101.719 14.8125C101.896 15.0208 102.115 15.4167 102.375 16L102.781 16.8438C103.021 17.3542 103.193 17.7708 103.297 18.0938C103.411 18.4062 103.469 18.7344 103.469 19.0781C103.469 19.4844 103.422 19.8906 103.328 20.2969C103.234 20.6927 103.089 21.1042 102.891 21.5312C102.526 22.3333 102.182 22.9323 101.859 23.3281C101.536 23.6927 101.042 24.0521 100.375 24.4062C100.052 24.5729 99.6927 24.7031 99.2969 24.7969C98.9115 24.8906 98.5 24.9375 98.0625 24.9375C95.2396 24.9375 93.8281 23.349 93.8281 20.1719C93.5156 20.2969 93.2656 20.375 93.0781 20.4062L91.9688 20.4844C91.6771 20.4844 91.4844 20.4948 91.3906 20.5156L89.9844 20.7031C89.9844 21.0677 90.0156 21.5573 90.0781 22.1719C90.1094 22.4115 90.1458 22.7135 90.1875 23.0781C90.2292 23.4323 90.2812 23.7812 90.3438 24.125V24.6094C90.25 24.7865 90.0365 24.875 89.7031 24.875C89.3177 24.875 89.026 24.7604 88.8281 24.5312C88.6406 24.2917 88.5469 23.8073 88.5469 23.0781L88.5781 22.5469L88.6094 22.0156L88.5469 21.5938L88.4531 21.1562L88.4219 20.7344L87.4375 20.8438C87.0312 20.8438 86.7656 20.7656 86.6406 20.6094C86.526 20.4427 86.4688 20.1771 86.4688 19.8125C86.4688 19.4479 86.7344 19.2656 87.2656 19.2656L87.7188 19.2812L88.4219 19.2969C88.4219 19.1302 88.4219 18.974 88.4219 18.8281C88.4219 18.6719 88.4323 18.4948 88.4531 18.2969L88.5469 17.4375L88.7188 15.3906C88.7188 15.2552 88.7135 15.1094 88.7031 14.9531C88.6927 14.7865 88.6719 14.6146 88.6406 14.4375L88.5781 13.8594C88.5781 13.7969 88.625 13.7344 88.7188 13.6719C88.8125 13.6094 88.9167 13.5781 89.0312 13.5781ZM98.0312 14.8594C97.625 14.8594 97.1406 15.1771 96.5781 15.8125C96.2344 16.1875 96 16.5677 95.875 16.9531L95.7656 17.625L95.7188 18.5625V20.0625C95.7188 21.2083 95.9062 22.0417 96.2812 22.5625C96.6562 23.0729 97.3438 23.3281 98.3438 23.3281C98.6458 23.3281 99 23.224 99.4062 23.0156C99.8229 22.7969 100.141 22.5521 100.359 22.2812C101.193 21.2917 101.609 20.3594 101.609 19.4844C101.609 19.0781 101.396 18.3021 100.969 17.1562C100.812 16.7396 100.667 16.4219 100.531 16.2031C100.448 16.0573 100.385 15.9583 100.344 15.9062C100.302 15.8438 100.24 15.776 100.156 15.7031C100.073 15.6198 99.9531 15.5469 99.7969 15.4844L99.2656 15.2969C98.6302 15.0052 98.2188 14.8594 98.0312 14.8594ZM120.609 13.6094H121.156C121.406 13.6406 121.651 13.7917 121.891 14.0625C122.12 14.2917 122.234 14.5885 122.234 14.9531C122.234 15.2135 122.161 15.3854 122.016 15.4688C121.87 15.5521 121.646 15.5938 121.344 15.5938C121.25 15.5938 121.083 15.5365 120.844 15.4219L120.578 15.2969L120.312 15.2344C119.656 15.2344 119.234 15.6458 119.047 16.4688C118.87 17.2917 118.781 18.2448 118.781 19.3281C118.781 21.2552 119.807 22.2188 121.859 22.2188C122.682 22.2188 123.599 21.8802 124.609 21.2031C125.62 20.526 126.474 19.776 127.172 18.9531C127.474 18.6094 127.875 18.4375 128.375 18.4375C128.479 18.4375 128.578 18.5052 128.672 18.6406C128.734 18.7448 128.776 18.8802 128.797 19.0469C128.797 19.2448 128.734 19.4375 128.609 19.625C128.495 19.8125 128.318 20.0365 128.078 20.2969L127.578 20.7656L126.703 21.7188L126.094 22.2969L125.406 22.8281C124.979 23.1302 124.422 23.3958 123.734 23.625C123.047 23.8542 122.281 23.9688 121.438 23.9688C120.271 23.9688 119.271 23.6771 118.438 23.0938C117.979 22.7812 117.62 22.3073 117.359 21.6719C117.068 20.9635 116.922 20.1198 116.922 19.1406V17.9219C116.922 17.5156 116.974 17.1198 117.078 16.7344C117.182 16.3385 117.333 15.9115 117.531 15.4531C117.656 15.1406 117.943 14.7917 118.391 14.4062C118.839 14.0208 119.578 13.7552 120.609 13.6094ZM134.344 12.5156C134.74 12.5156 135.036 12.5677 135.234 12.6719C135.359 12.724 135.469 12.7917 135.562 12.875C135.667 12.9375 135.781 13.0365 135.906 13.1719L136.391 13.6094L136.734 13.8281C136.818 13.8594 136.88 13.9219 136.922 14.0156C136.953 14.0573 136.979 14.1667 137 14.3438L137.047 14.7344C137.057 14.8906 137.083 15.0312 137.125 15.1562C137.177 15.2812 137.255 15.349 137.359 15.3594C137.641 15.3594 137.927 15.2812 138.219 15.125C138.51 14.9583 138.724 14.8698 138.859 14.8594C139.141 14.8594 139.38 15.2031 139.578 15.8906C139.776 16.5677 139.875 17.3073 139.875 18.1094L139.828 18.5938L139.781 19.0469C139.781 19.2031 139.812 19.375 139.875 19.5625L139.984 19.75L140.109 19.9688L140.203 20.1719V20.7656V21.7969C140.234 21.9844 140.328 22.2708 140.484 22.6562C140.651 23.0312 140.771 23.2656 140.844 23.3594L141.094 23.6875L141.328 24C141.401 24.1042 141.464 24.2552 141.516 24.4531C141.578 24.6094 141.609 24.7812 141.609 24.9688C141.609 25.125 141.568 25.25 141.484 25.3438C141.432 25.4271 141.24 25.5156 140.906 25.6094H140.297C140.12 25.526 139.885 25.3333 139.594 25.0312C139.302 24.7292 139.13 24.5156 139.078 24.3906V23.6562L138.75 22.9688C138.688 22.8542 138.625 22.6875 138.562 22.4688L138.375 21.7344V20.9062C138.375 20.7396 138.37 20.6146 138.359 20.5312C138.349 20.4479 138.312 20.3229 138.25 20.1562C138.188 19.8854 138.083 19.75 137.938 19.75C137.833 19.75 137.693 19.8385 137.516 20.0156C137.359 20.1927 137.245 20.2969 137.172 20.3281C137.109 20.349 136.969 20.3802 136.75 20.4219L136.438 20.3906L136.172 20.3594C135.828 20.3594 135.495 20.7448 135.172 21.5156C135.047 21.8281 134.953 22.0156 134.891 22.0781L134.781 22.1719L134.266 22.5781C133.87 22.8698 133.427 23.2708 132.938 23.7812C132.698 24.0417 132.453 24.224 132.203 24.3281L131.797 24.4219L131.203 24.4531H130.469C130.188 24.3385 129.875 24.0573 129.531 23.6094C129.198 23.151 129.031 22.7292 129.031 22.3438C129.031 22.1042 129.115 21.7188 129.281 21.1875L129.469 20.5156L129.578 20.0625C130.536 15.0312 132.125 12.5156 134.344 12.5156ZM134.062 14.4375C133.615 14.4375 133.224 14.6458 132.891 15.0625C132.766 15.2292 132.641 15.4219 132.516 15.6406C132.401 15.8594 132.297 16.0885 132.203 16.3281L131.812 17.5156C131.75 17.7031 131.682 17.8333 131.609 17.9062C131.547 17.9688 131.484 18.1042 131.422 18.3125L131.281 19.4531C131.281 19.6094 131.182 20.2292 130.984 21.3125V22.1094C131.078 22.3906 131.219 22.5312 131.406 22.5312C131.74 22.5312 132.266 22.1927 132.984 21.5156C133.349 21.1719 133.693 20.8073 134.016 20.4219C134.349 20.0365 134.661 19.625 134.953 19.1875C135.536 18.3333 135.859 17.6354 135.922 17.0938C135.922 16.8229 135.849 16.4896 135.703 16.0938C135.578 15.6667 135.365 15.2865 135.062 14.9531C134.781 14.6094 134.448 14.4375 134.062 14.4375ZM151.547 13.7656C152.016 13.7656 152.323 13.8542 152.469 14.0312C152.625 14.2083 152.703 14.4583 152.703 14.7812L152.688 15.125L152.672 15.4844L152.594 16.5312L152.531 18.1406L152.5 18.4844L152.469 18.8594C152.406 19.4844 152.375 19.9948 152.375 20.3906L152.344 21.0156L152.312 21.6094C152.312 21.9844 152.385 22.1771 152.531 22.1875C152.917 22.1875 153.943 20.6615 155.609 17.6094L156.844 15.3281C157.021 15.026 157.198 14.8073 157.375 14.6719C157.562 14.5365 157.828 14.4688 158.172 14.4688C158.568 14.4688 158.828 14.5833 158.953 14.8125C159.057 15.0521 159.109 15.6771 159.109 16.6875L159.125 18.0625C159.125 18.1875 159.13 18.3802 159.141 18.6406C159.151 18.8906 159.156 19.0781 159.156 19.2031V20.4531C159.156 21.2448 159.276 21.875 159.516 22.3438C159.766 22.8125 160.276 23.0469 161.047 23.0469C161.234 23.0469 161.557 22.9531 162.016 22.7656C162.151 22.7135 162.281 22.6615 162.406 22.6094C162.531 22.5573 162.63 22.5052 162.703 22.4531L163.094 22.2188L163.547 21.8281L164.125 21.3281C164.281 21.2344 164.448 21.1771 164.625 21.1562C164.74 21.1562 164.875 21.2188 165.031 21.3438C165.146 21.4583 165.214 21.599 165.234 21.7656C165.234 22.1719 164.958 22.6042 164.406 23.0625C163.865 23.5208 163.182 23.9271 162.359 24.2812C161.964 24.4375 161.594 24.5573 161.25 24.6406C160.917 24.724 160.604 24.7656 160.312 24.7656C159.562 24.7656 158.984 24.6042 158.578 24.2812C158.172 23.9583 157.891 23.4583 157.734 22.7812C157.599 22.0729 157.531 21.1875 157.531 20.125V19.0469L157.547 18.4531L157.562 17.8906C157.562 17.4844 157.521 17.2812 157.438 17.2812C157.302 17.2812 156.969 17.8073 156.438 18.8594C155.74 20.2865 155.25 21.1927 154.969 21.5781L154.172 22.7812C153.724 23.4792 153.339 23.9688 153.016 24.25C152.703 24.5312 152.307 24.6719 151.828 24.6719C151.401 24.6719 151.109 24.5417 150.953 24.2812C150.818 23.9896 150.75 23.5885 150.75 23.0781V22.0469L150.766 21.5781L150.781 21.0938L150.75 20.5469L150.719 20C150.719 19.5729 150.833 18.625 151.062 17.1562V16.3906C150.969 16.1615 150.885 16.0312 150.812 16C150.302 16 149.682 17.4115 148.953 20.2344C148.849 20.6823 148.74 21.0677 148.625 21.3906C148.521 21.7135 148.385 22.0417 148.219 22.375C147.958 22.9688 147.641 23.4427 147.266 23.7969C146.557 24.5156 145.839 24.875 145.109 24.875C144.609 24.875 144.182 24.7188 143.828 24.4062C143.484 24.0833 143.312 23.6719 143.312 23.1719C143.312 22.9427 143.396 22.724 143.562 22.5156C143.74 22.2969 143.917 22.1875 144.094 22.1875C144.344 22.1875 144.547 22.3125 144.703 22.5625C144.911 22.8646 145.188 23.0156 145.531 23.0156C146.083 23.0156 146.542 22.6406 146.906 21.8906C147.271 21.1302 147.63 20.0677 147.984 18.7031C148.036 18.4844 148.094 18.25 148.156 18C148.219 17.7396 148.312 17.4375 148.438 17.0938C148.562 16.6667 148.672 16.3802 148.766 16.2344C149.255 15.3385 149.688 14.7031 150.062 14.3281C150.438 13.9531 150.932 13.7656 151.547 13.7656Z" fill="#F19537"/>
</svg>
