<svg width="242" height="40" viewBox="0 0 242 40" fill="none" xmlns="http://www.w3.org/2000/svg">
<path d="M7.92188 3.78125C8.45312 3.78125 8.78646 4.08854 8.92188 4.70312L9.03125 5.125L9.125 5.375C9.1875 5.46875 9.375 5.51562 9.6875 5.51562L10.125 5.375L10.7344 5.14062C11.0677 5.00521 11.5156 4.86979 12.0781 4.73438L12.9531 4.5625C13.2865 4.52083 13.5156 4.5 13.6406 4.5C13.776 4.48958 13.8854 4.48438 13.9688 4.48438C14.6771 4.48438 15.2656 4.45312 15.7344 4.39062C16.2031 4.32812 16.474 4.29167 16.5469 4.28125C16.6198 4.26042 16.8385 4.20833 17.2031 4.125C18.5781 3.83333 19.4531 3.6875 19.8281 3.6875L20.4688 3.75L21.0781 3.8125C21.2448 3.8125 21.3646 3.80729 21.4375 3.79688C21.5208 3.78646 21.625 3.75 21.75 3.6875L22.0469 3.4375C22.1615 3.33333 22.2865 3.26562 22.4219 3.23438C23.401 3.23438 23.8906 3.65104 23.8906 4.48438C23.8906 4.76562 23.7396 4.98958 23.4375 5.15625C23.3542 5.19792 23.2292 5.21875 23.0625 5.21875H22.6562L22.3281 5.15625L21.4531 5.20312C21.3281 5.21354 21.1562 5.23438 20.9375 5.26562C20.7188 5.29688 20.5 5.33333 20.2812 5.375L20.0469 8.0625V8.46875L20.1094 8.8125L20.1719 9.54688C20.1719 9.63021 20.0781 9.85417 19.8906 10.2188C19.7031 10.5729 19.6094 11.1042 19.6094 11.8125V14.5312L19.6875 15.9375L19.7969 17.4375L19.8438 18.5938L19.8906 19.8438L19.9375 20.8125L19.9844 21.7969L19.9688 22.2656C19.9688 22.401 19.9583 22.5052 19.9375 22.5781C19.9271 22.6406 19.901 22.7552 19.8594 22.9219C19.8177 23.0781 19.7865 23.2396 19.7656 23.4062C19.7448 23.5625 19.7344 23.7396 19.7344 23.9375C19.7344 24.0729 19.8281 24.2969 20.0156 24.6094C20.2135 24.9219 20.3125 25.1198 20.3125 25.2031C20.3125 25.2552 20.2135 25.3438 20.0156 25.4688L19.6094 25.7344L19.2812 26.1406C19.1562 26.3281 19.0417 26.4271 18.9375 26.4375C18.8542 26.4375 18.6406 26.2812 18.2969 25.9688C17.9948 25.6667 17.8333 25.4427 17.8125 25.2969C17.8125 25.1406 17.9167 24.7656 18.125 24.1719C18.2188 23.9531 18.2656 23.7031 18.2656 23.4219C18.2656 23.2448 18.2188 22.9583 18.125 22.5625C18.0729 22.3125 18.026 22.0885 17.9844 21.8906C17.9427 21.6927 17.9167 21.5417 17.9062 21.4375C17.9062 21.3229 17.9427 21.1615 18.0156 20.9531L18.125 20.4219L18.0312 18.9844L17.9688 17.8281L17.9062 16.6719L17.8906 15.6094L17.875 14.8125L17.8438 13.1562C17.8438 12.1667 17.8646 11.4844 17.9062 11.1094C17.9062 10.5365 17.9271 9.99479 17.9688 9.48438C18.0208 8.97396 18.0729 8.45833 18.125 7.9375L18.1094 7.39062L18.0938 6.92188C18.0938 6.53646 18.1719 6.17188 18.3281 5.82812L17.1875 6C16.9375 6.03125 16.7188 6.05729 16.5312 6.07812C16.3438 6.09896 16.1667 6.10938 16 6.10938L14.5469 6.1875C14.1927 6.1875 13.5104 6.27604 12.5 6.45312C11.4896 6.61979 10.2604 6.86979 8.8125 7.20312L8.75 9.07812L8.6875 11.1094L8.71875 13.2812L8.8125 15.8438L8.89062 17.9844L8.92188 19.7812L8.875 20.7188L8.84375 21.6094L8.78125 23.3281V25V26.0312C8.875 26.5938 8.92188 27.0417 8.92188 27.375C8.92188 27.5625 8.82292 27.7344 8.625 27.8906C8.42708 28.0573 8.22396 28.1406 8.01562 28.1406C7.49479 28.1406 7.09896 28.0104 6.82812 27.75C6.55729 27.5 6.42188 26.9583 6.42188 26.125L6.4375 25.5L6.53125 24.5156L6.70312 22.5625L6.73438 21.4531L6.76562 20.3594L6.75 19.75L6.73438 19.1406C6.73438 18.9115 6.77083 18.6354 6.84375 18.3125L6.9375 17.8281L6.96875 17.4375L6.9375 15.2656L6.90625 13.0938L6.92188 12.5781L6.95312 11.9219L7 11.3906V7.75C6.5625 7.75 5.8125 7.875 4.75 8.125L4.375 8.21875L3.78125 8.4375L3.40625 8.5625L2.84375 8.73438L2.4375 8.8125L2 8.84375C1.26042 8.84375 0.890625 8.60417 0.890625 8.125C0.890625 7.72917 1 7.45833 1.21875 7.3125C1.4375 7.16667 1.84375 7.05729 2.4375 6.98438C3.04167 6.90104 3.48438 6.80208 3.76562 6.6875C4.18229 6.54167 4.69271 6.43229 5.29688 6.35938C5.64062 6.32812 5.90625 6.29688 6.09375 6.26562C6.29167 6.23438 6.45312 6.19271 6.57812 6.14062C6.79688 6.05729 6.9375 5.84896 7 5.51562V4.70312C7.03125 4.42188 7.13021 4.19792 7.29688 4.03125C7.38021 3.94792 7.46875 3.88542 7.5625 3.84375C7.65625 3.80208 7.77604 3.78125 7.92188 3.78125ZM27.25 15.9688C27.4167 15.9688 27.5729 16.0052 27.7188 16.0781C27.875 16.1406 27.9531 16.2448 27.9531 16.3906C27.9531 16.9219 27.8906 17.776 27.7656 18.9531L27.7344 19.2344L27.7031 19.5312C27.7031 19.6771 27.724 19.7917 27.7656 19.875L27.8906 20.0625H28.2812C28.4688 20.0104 28.6562 19.9167 28.8438 19.7812L29.4844 19.2031L30.2031 18.5L30.4844 18.1562L30.8438 17.7656C30.9688 17.651 31.1094 17.5521 31.2656 17.4688L31.7188 17.3594L32.1875 17.2812C32.4062 17.25 32.7188 17.1354 33.125 16.9375C33.5417 16.7396 33.9323 16.6406 34.2969 16.6406C34.9219 16.6406 35.5052 16.8802 36.0469 17.3594C36.3177 17.599 36.5208 17.8646 36.6562 18.1562C36.7917 18.4479 36.8594 18.7656 36.8594 19.1094C36.8594 19.4948 36.7604 19.8906 36.5625 20.2969C36.4688 20.4948 36.375 20.75 36.2812 21.0625L36.0938 21.7344L35.6875 22.375L35.25 23.0469C34.9896 23.526 34.7604 23.875 34.5625 24.0938C34.375 24.3125 34.2031 24.4219 34.0469 24.4219L33.875 24.4062L33.6875 24.3906L33.3125 24.4375L33.0312 24.5625C32.9271 24.6146 32.8333 24.6823 32.75 24.7656C32.5729 24.9219 32.3958 25 32.2188 25C31.9375 25 31.4219 24.8594 30.6719 24.5781L29.6562 24.1875L28.2812 23.6562C27.9896 24.1146 27.7448 24.7708 27.5469 25.625C27.3906 26.4479 27.2656 27.2708 27.1719 28.0938C27.1719 28.3229 27.151 28.7083 27.1094 29.25C27.0781 29.7917 27.0625 30.1875 27.0625 30.4375V33.0938C27.0625 34.1667 26.9479 34.9323 26.7188 35.3906C26.5 35.849 26.276 36.0781 26.0469 36.0781C25.8594 36.0781 25.5677 35.9896 25.1719 35.8125C24.7865 35.6354 24.5938 35.4479 24.5938 35.25L24.6406 35.0156L24.6875 34.7656C24.6875 34.3385 24.6562 34.0677 24.5938 33.9531L24.375 33.7031C24.3021 33.5885 24.2656 33.3229 24.2656 32.9062C24.2656 32.5625 24.2917 32.2969 24.3438 32.1094C24.375 31.8698 24.4479 31.6667 24.5625 31.5L24.8281 30.8438C24.9115 30.6042 24.974 30.3021 25.0156 29.9375V29.4219L24.9844 29.0625L24.9531 28.6875C24.9531 28.4896 24.974 28.349 25.0156 28.2656L25.3906 27.7344C25.6094 27.4635 25.7188 27.2135 25.7188 26.9844L25.75 25.4219C25.75 25.2552 25.7812 24.7188 25.8438 23.8125C25.875 23.3542 25.8906 22.9479 25.8906 22.5938L26.0469 20.2969L25.9844 19.6406L25.9219 19.0938L25.9062 18.3125C25.9062 17.7292 26.0625 17.1927 26.375 16.7031C26.6979 16.2135 26.9896 15.9688 27.25 15.9688ZM29.2031 21.7969C29.4844 22.2031 29.9271 22.5312 30.5312 22.7812C31.1354 23.0208 31.6458 23.1406 32.0625 23.1406C32.5625 23.1406 33.099 22.8177 33.6719 22.1719C34.2552 21.5156 34.6042 20.9531 34.7188 20.4844V19.6875C34.6771 19.375 34.5833 19.125 34.4375 18.9375C34.3125 18.75 34.0625 18.6562 33.6875 18.6562C32.9688 18.6562 32.4323 18.776 32.0781 19.0156C31.7344 19.2448 31.3125 19.6562 30.8125 20.25C30.3229 20.8438 29.7865 21.3594 29.2031 21.7969ZM41.5312 11.9688C42.0312 11.9688 42.4635 12.3021 42.8281 12.9688C43.2031 13.6354 43.3906 14.776 43.3906 16.3906L43.375 16.9844L43.3594 17.5781C43.3594 21.099 43.5365 22.8594 43.8906 22.8594C44.2344 22.8594 44.5938 22.6719 44.9688 22.2969C45.3438 21.9219 45.7135 21.4167 46.0781 20.7812L47.125 18.7812L47.9219 17.1875L48.5938 15.9531C48.9792 15.2031 49.3177 14.6719 49.6094 14.3594C49.901 14.0052 50.2135 13.8281 50.5469 13.8281C51.0677 13.8281 51.4427 14.099 51.6719 14.6406C51.9115 15.1719 52.1094 16.0052 52.2656 17.1406C52.4219 18.2656 52.5312 18.9323 52.5938 19.1406L52.9062 20.375C52.9479 20.5625 52.9844 20.7396 53.0156 20.9062C53.0573 21.0625 53.1094 21.2292 53.1719 21.4062L53.4062 22.0938C53.5208 22.4479 53.6875 22.7708 53.9062 23.0625C54.0833 23.3021 54.3281 23.4688 54.6406 23.5625H55.0625C55.5938 23.5 55.9844 23.3594 56.2344 23.1406C56.4844 22.9427 56.7812 22.6406 57.125 22.2344C57.4792 21.8281 57.8177 21.5417 58.1406 21.375C58.2865 21.2917 58.4531 21.25 58.6406 21.25C58.8281 21.25 58.9688 21.2917 59.0625 21.375C59.2083 21.5 59.2812 21.7448 59.2812 22.1094C59.2812 22.3385 58.9896 22.724 58.4062 23.2656C57.875 23.7656 57.2344 24.2604 56.4844 24.75C55.776 25.1979 55.3021 25.4219 55.0625 25.4219C53.8125 25.4219 52.8958 24.875 52.3125 23.7812C51.6458 22.3021 51.2604 21.375 51.1562 21L51 19.4375C50.9062 18.4375 50.7917 17.6458 50.6562 17.0625C50.5312 16.4688 50.3698 16.1719 50.1719 16.1719C49.9844 16.1719 49.7812 16.4688 49.5625 17.0625C49.2188 17.9688 48.9844 18.5156 48.8594 18.7031L48.4844 19.2031C48.3698 19.3177 48.1927 19.6615 47.9531 20.2344C47.4844 21.4219 46.8438 22.5156 46.0312 23.5156C45.2188 24.5052 44.3385 25 43.3906 25C42.401 25 41.9062 24.3802 41.9062 23.1406V21.4375L41.8438 19.8594L41.7812 17.75L41.75 16.3906V15.4531C41.75 15.1823 41.6875 14.8438 41.5625 14.4375C41.4375 14.0312 41.2969 13.8281 41.1406 13.8281C40.901 13.8281 40.6198 13.901 40.2969 14.0469C39.9323 14.1823 39.5938 14.375 39.2812 14.625L38.8281 15.0625L38.3906 15.4688C38.3177 15.5208 38.2135 15.5625 38.0781 15.5938C37.8906 15.5938 37.7083 15.5312 37.5312 15.4062C37.3438 15.2708 37.2448 15.1198 37.2344 14.9531C37.2344 14.5469 37.5469 14.1719 38.1719 13.8281C38.5781 13.5885 38.9635 13.2865 39.3281 12.9219C39.651 12.599 39.9479 12.3594 40.2188 12.2031C40.4896 12.0469 40.9271 11.9688 41.5312 11.9688ZM62.125 11.9688C62.6146 11.9688 63.0469 12.3021 63.4219 12.9688C63.7969 13.625 63.9844 14.7656 63.9844 16.3906L63.9688 16.9844L63.9531 17.5781C63.9531 21.099 64.1354 22.8594 64.5 22.8594C65.4062 22.8594 66.5156 21.4062 67.8281 18.5C69.224 15.3854 70.3333 13.8281 71.1562 13.8281C71.6667 13.8281 72.0417 14.099 72.2812 14.6406C72.5208 15.1719 72.7135 15.9844 72.8594 17.0781C73.0052 18.1719 73.1198 18.8594 73.2031 19.1406L73.5 20.375L73.7188 21.2344L74 22.0938C74.1458 22.4792 74.3125 22.8021 74.5 23.0625C74.6979 23.3229 74.9479 23.4896 75.25 23.5625H75.6719C76.1719 23.5 76.5573 23.3646 76.8281 23.1562L77.2188 22.7812L77.7188 22.2344C78.0521 21.8385 78.3906 21.5521 78.7344 21.375C78.8802 21.2917 79.0521 21.25 79.25 21.25C79.4375 21.25 79.5781 21.2917 79.6719 21.375C79.8177 21.5 79.8906 21.7448 79.8906 22.1094C79.8906 22.3385 79.599 22.724 79.0156 23.2656C78.474 23.7552 77.8385 24.2396 77.1094 24.7188C76.3906 25.1875 75.9115 25.4219 75.6719 25.4219C74.8281 25.4219 74.1406 25.1354 73.6094 24.5625C73.0781 23.9896 72.6406 23.2292 72.2969 22.2812C71.9948 21.3958 71.6771 20.1875 71.3438 18.6562L71.2344 17.6094L71.1875 17C71.1875 16.9271 71.1771 16.8385 71.1562 16.7344C71.1354 16.6302 71.1042 16.4948 71.0625 16.3281C71.0208 16.151 70.9115 16.0625 70.7344 16.0625C70.6406 16.0625 70.526 16.1979 70.3906 16.4688L69.8906 17.6875C69.6823 18.2604 69.5365 18.6042 69.4531 18.7188L67.7031 21.8438C67.151 22.8229 66.5781 23.5938 65.9844 24.1562C65.401 24.7188 64.7344 25 63.9844 25C63.0052 25 62.5156 24.3802 62.5156 23.1406V21.4375L62.4531 19.8594L62.375 17.75L62.3594 16.3906V15.4531C62.3594 15.2135 62.2969 14.8906 62.1719 14.4844C62.0469 14.0677 61.9062 13.849 61.75 13.8281C61.4688 13.8281 61.1979 13.9062 60.9375 14.0625C60.6771 14.2083 60.3854 14.4375 60.0625 14.75C59.7396 15.0521 59.4844 15.2656 59.2969 15.3906C59.2448 15.4323 59.1615 15.4792 59.0469 15.5312C58.9427 15.5729 58.8177 15.5938 58.6719 15.5938C58.526 15.5938 58.3542 15.5365 58.1562 15.4219C57.9688 15.2969 57.8594 15.1406 57.8281 14.9531C57.8281 14.5469 58.1406 14.1719 58.7656 13.8281C58.974 13.7135 59.1615 13.5938 59.3281 13.4688C59.5052 13.3333 59.6979 13.1615 59.9062 12.9531C60.2708 12.5781 60.5781 12.3229 60.8281 12.1875C61.0885 12.0417 61.5208 11.9688 62.125 11.9688ZM72.5312 6.375C72.8646 6.375 73.099 6.44792 73.2344 6.59375C73.3802 6.71875 73.4531 6.86979 73.4531 7.04688C73.4531 7.22396 73.3073 7.45312 73.0156 7.73438C72.7865 7.95312 72.2708 8.35417 71.4688 8.9375L70.2812 9.79688C69.9583 10.0365 69.2292 10.2656 68.0938 10.4844C67.5417 10.5781 67.0156 10.651 66.5156 10.7031C66.026 10.7552 65.5573 10.7812 65.1094 10.7812C64.4844 10.7812 64.1719 10.6667 64.1719 10.4375C64.1719 10.125 64.2188 9.85938 64.3125 9.64062C64.4062 9.42188 64.6406 9.28125 65.0156 9.21875H66.4219H66.625C67.1146 9.21875 67.526 9.19271 67.8594 9.14062C68.1927 9.08854 68.5312 8.99479 68.875 8.85938C69.5 8.60938 69.9948 8.30208 70.3594 7.9375L71.375 6.92188C71.7917 6.55729 72.1771 6.375 72.5312 6.375ZM88.3125 13.7656C88.7812 13.7656 89.0885 13.8542 89.2344 14.0312C89.3906 14.2083 89.4688 14.4583 89.4688 14.7812L89.4531 15.125L89.4375 15.4844L89.3594 16.5312L89.2969 18.1406L89.2656 18.4844L89.2344 18.8594C89.1719 19.4844 89.1406 19.9948 89.1406 20.3906L89.1094 21.0156L89.0781 21.6094C89.0781 21.9844 89.151 22.1771 89.2969 22.1875C89.6823 22.1875 90.7083 20.6615 92.375 17.6094L93.6094 15.3281C93.7865 15.026 93.9635 14.8073 94.1406 14.6719C94.3281 14.5365 94.5938 14.4688 94.9375 14.4688C95.3333 14.4688 95.5938 14.5833 95.7188 14.8125C95.8229 15.0521 95.875 15.6771 95.875 16.6875L95.8906 18.0625C95.8906 18.1875 95.8958 18.3802 95.9062 18.6406C95.9167 18.8906 95.9219 19.0781 95.9219 19.2031V20.4531C95.9219 21.2448 96.0417 21.875 96.2812 22.3438C96.5312 22.8125 97.0417 23.0469 97.8125 23.0469C98 23.0469 98.3229 22.9531 98.7812 22.7656C98.9167 22.7135 99.0469 22.6615 99.1719 22.6094C99.2969 22.5573 99.3958 22.5052 99.4688 22.4531L99.8594 22.2188L100.312 21.8281L100.891 21.3281C101.047 21.2344 101.214 21.1771 101.391 21.1562C101.505 21.1562 101.641 21.2188 101.797 21.3438C101.911 21.4583 101.979 21.599 102 21.7656C102 22.1719 101.724 22.6042 101.172 23.0625C100.63 23.5208 99.9479 23.9271 99.125 24.2812C98.7292 24.4375 98.3594 24.5573 98.0156 24.6406C97.6823 24.724 97.3698 24.7656 97.0781 24.7656C96.3281 24.7656 95.75 24.6042 95.3438 24.2812C94.9375 23.9583 94.6562 23.4583 94.5 22.7812C94.3646 22.0729 94.2969 21.1875 94.2969 20.125V19.0469L94.3125 18.4531L94.3281 17.8906C94.3281 17.4844 94.2865 17.2812 94.2031 17.2812C94.0677 17.2812 93.7344 17.8073 93.2031 18.8594C92.5052 20.2865 92.0156 21.1927 91.7344 21.5781L90.9375 22.7812C90.4896 23.4792 90.1042 23.9688 89.7812 24.25C89.4688 24.5312 89.0729 24.6719 88.5938 24.6719C88.1667 24.6719 87.875 24.5417 87.7188 24.2812C87.5833 23.9896 87.5156 23.5885 87.5156 23.0781V22.0469L87.5312 21.5781L87.5469 21.0938L87.5156 20.5469L87.4844 20C87.4844 19.5729 87.599 18.625 87.8281 17.1562V16.3906C87.7344 16.1615 87.651 16.0312 87.5781 16C87.0677 16 86.4479 17.4115 85.7188 20.2344C85.6146 20.6823 85.5052 21.0677 85.3906 21.3906C85.2865 21.7135 85.151 22.0417 84.9844 22.375C84.724 22.9688 84.4062 23.4427 84.0312 23.7969C83.3229 24.5156 82.6042 24.875 81.875 24.875C81.375 24.875 80.9479 24.7188 80.5938 24.4062C80.25 24.0833 80.0781 23.6719 80.0781 23.1719C80.0781 22.9427 80.1615 22.724 80.3281 22.5156C80.5052 22.2969 80.6823 22.1875 80.8594 22.1875C81.1094 22.1875 81.3125 22.3125 81.4688 22.5625C81.6771 22.8646 81.9531 23.0156 82.2969 23.0156C82.849 23.0156 83.3073 22.6406 83.6719 21.8906C84.0365 21.1302 84.3958 20.0677 84.75 18.7031C84.8021 18.4844 84.8594 18.25 84.9219 18C84.9844 17.7396 85.0781 17.4375 85.2031 17.0938C85.3281 16.6667 85.4375 16.3802 85.5312 16.2344C86.0208 15.3385 86.4531 14.7031 86.8281 14.3281C87.2031 13.9531 87.6979 13.7656 88.3125 13.7656ZM106.328 12.5156C106.724 12.5156 107.021 12.5677 107.219 12.6719C107.344 12.724 107.453 12.7917 107.547 12.875C107.651 12.9375 107.766 13.0365 107.891 13.1719L108.375 13.6094L108.719 13.8281C108.802 13.8594 108.865 13.9219 108.906 14.0156C108.938 14.0573 108.964 14.1667 108.984 14.3438L109.031 14.7344C109.042 14.8906 109.068 15.0312 109.109 15.1562C109.161 15.2812 109.24 15.349 109.344 15.3594C109.625 15.3594 109.911 15.2812 110.203 15.125C110.495 14.9583 110.708 14.8698 110.844 14.8594C111.125 14.8594 111.365 15.2031 111.562 15.8906C111.76 16.5677 111.859 17.3073 111.859 18.1094L111.812 18.5938L111.766 19.0469C111.766 19.2031 111.797 19.375 111.859 19.5625L111.969 19.75L112.094 19.9688L112.188 20.1719V20.7656V21.7969C112.219 21.9844 112.312 22.2708 112.469 22.6562C112.635 23.0312 112.755 23.2656 112.828 23.3594L113.078 23.6875L113.312 24C113.385 24.1042 113.448 24.2552 113.5 24.4531C113.562 24.6094 113.594 24.7812 113.594 24.9688C113.594 25.125 113.552 25.25 113.469 25.3438C113.417 25.4271 113.224 25.5156 112.891 25.6094H112.281C112.104 25.526 111.87 25.3333 111.578 25.0312C111.286 24.7292 111.115 24.5156 111.062 24.3906V23.6562L110.734 22.9688C110.672 22.8542 110.609 22.6875 110.547 22.4688L110.359 21.7344V20.9062C110.359 20.7396 110.354 20.6146 110.344 20.5312C110.333 20.4479 110.297 20.3229 110.234 20.1562C110.172 19.8854 110.068 19.75 109.922 19.75C109.818 19.75 109.677 19.8385 109.5 20.0156C109.344 20.1927 109.229 20.2969 109.156 20.3281C109.094 20.349 108.953 20.3802 108.734 20.4219L108.422 20.3906L108.156 20.3594C107.812 20.3594 107.479 20.7448 107.156 21.5156C107.031 21.8281 106.938 22.0156 106.875 22.0781L106.766 22.1719L106.25 22.5781C105.854 22.8698 105.411 23.2708 104.922 23.7812C104.682 24.0417 104.438 24.224 104.188 24.3281L103.781 24.4219L103.188 24.4531H102.453C102.172 24.3385 101.859 24.0573 101.516 23.6094C101.182 23.151 101.016 22.7292 101.016 22.3438C101.016 22.1042 101.099 21.7188 101.266 21.1875L101.453 20.5156L101.562 20.0625C102.521 15.0312 104.109 12.5156 106.328 12.5156ZM106.047 14.4375C105.599 14.4375 105.208 14.6458 104.875 15.0625C104.75 15.2292 104.625 15.4219 104.5 15.6406C104.385 15.8594 104.281 16.0885 104.188 16.3281L103.797 17.5156C103.734 17.7031 103.667 17.8333 103.594 17.9062C103.531 17.9688 103.469 18.1042 103.406 18.3125L103.266 19.4531C103.266 19.6094 103.167 20.2292 102.969 21.3125V22.1094C103.062 22.3906 103.203 22.5312 103.391 22.5312C103.724 22.5312 104.25 22.1927 104.969 21.5156C105.333 21.1719 105.677 20.8073 106 20.4219C106.333 20.0365 106.646 19.625 106.938 19.1875C107.521 18.3333 107.844 17.6354 107.906 17.0938C107.906 16.8229 107.833 16.4896 107.688 16.0938C107.562 15.6667 107.349 15.2865 107.047 14.9531C106.766 14.6094 106.432 14.4375 106.047 14.4375ZM117.672 13.5781C118.172 13.5781 118.495 13.7135 118.641 13.9844C118.786 14.2448 118.859 14.6302 118.859 15.1406L118.812 16.2188L118.734 17.4688L118.594 19.2344L120.188 19.1562C120.625 19.1562 120.969 19.1406 121.219 19.1094C121.469 19.0677 121.682 19.0052 121.859 18.9219C122.036 18.8385 122.198 18.6406 122.344 18.3281C122.469 18.026 122.625 17.5104 122.812 16.7812C122.906 16.4167 122.969 16.1823 123 16.0781C123.094 15.7344 123.188 15.4635 123.281 15.2656C123.385 15.0677 123.693 14.7292 124.203 14.25C124.578 13.9062 124.938 13.651 125.281 13.4844C125.656 13.349 126.104 13.2812 126.625 13.2812C126.896 13.2812 127.099 13.2865 127.234 13.2969C127.37 13.3073 127.51 13.3333 127.656 13.375C127.802 13.4167 127.932 13.4583 128.047 13.5C128.172 13.5417 128.281 13.5938 128.375 13.6562L129.094 14.0469L129.844 14.3594C130.021 14.4427 130.193 14.5938 130.359 14.8125C130.536 15.0208 130.755 15.4167 131.016 16L131.422 16.8438C131.661 17.3542 131.833 17.7708 131.938 18.0938C132.052 18.4062 132.109 18.7344 132.109 19.0781C132.109 19.4844 132.062 19.8906 131.969 20.2969C131.875 20.6927 131.729 21.1042 131.531 21.5312C131.167 22.3333 130.823 22.9323 130.5 23.3281C130.177 23.6927 129.682 24.0521 129.016 24.4062C128.693 24.5729 128.333 24.7031 127.938 24.7969C127.552 24.8906 127.141 24.9375 126.703 24.9375C123.88 24.9375 122.469 23.349 122.469 20.1719C122.156 20.2969 121.906 20.375 121.719 20.4062L120.609 20.4844C120.318 20.4844 120.125 20.4948 120.031 20.5156L118.625 20.7031C118.625 21.0677 118.656 21.5573 118.719 22.1719C118.75 22.4115 118.786 22.7135 118.828 23.0781C118.87 23.4323 118.922 23.7812 118.984 24.125V24.6094C118.891 24.7865 118.677 24.875 118.344 24.875C117.958 24.875 117.667 24.7604 117.469 24.5312C117.281 24.2917 117.188 23.8073 117.188 23.0781L117.219 22.5469L117.25 22.0156L117.188 21.5938L117.094 21.1562L117.062 20.7344L116.078 20.8438C115.672 20.8438 115.406 20.7656 115.281 20.6094C115.167 20.4427 115.109 20.1771 115.109 19.8125C115.109 19.4479 115.375 19.2656 115.906 19.2656L116.359 19.2812L117.062 19.2969C117.062 19.1302 117.062 18.974 117.062 18.8281C117.062 18.6719 117.073 18.4948 117.094 18.2969L117.188 17.4375L117.359 15.3906C117.359 15.2552 117.354 15.1094 117.344 14.9531C117.333 14.7865 117.312 14.6146 117.281 14.4375L117.219 13.8594C117.219 13.7969 117.266 13.7344 117.359 13.6719C117.453 13.6094 117.557 13.5781 117.672 13.5781ZM126.672 14.8594C126.266 14.8594 125.781 15.1771 125.219 15.8125C124.875 16.1875 124.641 16.5677 124.516 16.9531L124.406 17.625L124.359 18.5625V20.0625C124.359 21.2083 124.547 22.0417 124.922 22.5625C125.297 23.0729 125.984 23.3281 126.984 23.3281C127.286 23.3281 127.641 23.224 128.047 23.0156C128.464 22.7969 128.781 22.5521 129 22.2812C129.833 21.2917 130.25 20.3594 130.25 19.4844C130.25 19.0781 130.036 18.3021 129.609 17.1562C129.453 16.7396 129.307 16.4219 129.172 16.2031C129.089 16.0573 129.026 15.9583 128.984 15.9062C128.943 15.8438 128.88 15.776 128.797 15.7031C128.714 15.6198 128.594 15.5469 128.438 15.4844L127.906 15.2969C127.271 15.0052 126.859 14.8594 126.672 14.8594ZM149.891 14.2812C150.411 14.2812 150.922 14.4948 151.422 14.9219C151.932 15.3385 152.188 15.9635 152.188 16.7969C152.188 17.2969 152.115 17.6615 151.969 17.8906C151.823 18.1094 151.661 18.2188 151.484 18.2188C151.016 18.2188 150.781 18.1198 150.781 17.9219C150.781 17.7865 150.807 17.6354 150.859 17.4688L150.906 17.2344L150.938 16.9688C150.938 16.8021 150.802 16.6458 150.531 16.5C150.281 16.3438 150.036 16.2656 149.797 16.2656C149.536 16.2656 149.208 16.4583 148.812 16.8438C148.417 17.2292 148.052 17.6667 147.719 18.1562C147.396 18.6458 147.234 19.0052 147.234 19.2344C147.234 19.9635 147.786 20.3281 148.891 20.3281C149.036 20.3281 149.385 20.2188 149.938 20C150.188 19.9062 150.422 19.8385 150.641 19.7969C150.87 19.7448 151.036 19.7135 151.141 19.7031C151.255 19.6927 151.422 19.6875 151.641 19.6875C152.328 19.6875 152.76 19.9115 152.938 20.3594C153.125 20.8073 153.219 21.4896 153.219 22.4062V22.7031V22.9531V23.1562C153.219 23.3542 153.214 23.5312 153.203 23.6875C153.203 23.8333 153.188 23.9844 153.156 24.1406L153.094 24.7656L153 25.1562L152.859 26.1875V27.9219L152.875 28.3438L152.891 28.7812C152.891 30.3854 152.729 31.8385 152.406 33.1406C152.333 33.4427 152.25 33.7604 152.156 34.0938C152.062 34.4271 151.964 34.7292 151.859 35C151.682 35.5208 151.448 36.0469 151.156 36.5781C150.667 37.4948 150.141 38.2135 149.578 38.7344C149.026 39.2656 148.531 39.5312 148.094 39.5312C147.219 39.5312 146.438 39.4375 145.75 39.25C145.438 39.1667 145.094 39.0469 144.719 38.8906C144.344 38.7448 144.135 38.6615 144.094 38.6406C143.906 38.5365 143.771 38.4635 143.688 38.4219L141.5 37.2969C141.052 37.0677 140.365 36.4427 139.438 35.4219C138.5 34.4115 138.031 33.7656 138.031 33.4844C138.031 33.3698 138.083 33.2083 138.188 33C138.281 32.7917 138.328 32.6198 138.328 32.4844L138.25 32.1719L138.172 31.8906C138.172 31.7656 138.271 31.6406 138.469 31.5156C138.656 31.401 138.854 31.3438 139.062 31.3438C139.51 31.3438 139.859 31.401 140.109 31.5156C140.349 31.6406 140.469 31.8073 140.469 32.0156C140.469 32.1302 140.417 32.276 140.312 32.4531C140.208 32.6302 140.146 32.7917 140.125 32.9375C140.125 33.4167 140.536 34.0365 141.359 34.7969C142.182 35.5677 143.141 36.2656 144.234 36.8906C145.328 37.5156 146.188 37.8281 146.812 37.8281C147.854 37.8281 148.703 37.1875 149.359 35.9062C150.016 34.625 150.484 33.1615 150.766 31.5156C150.911 30.651 151.021 29.9115 151.094 29.2969C151.167 28.6927 151.203 28.1354 151.203 27.625V27.2344L151.141 26.7188L151.094 25.9062C151.094 25.7708 151.156 25.5833 151.281 25.3438C151.417 25.1146 151.495 24.9115 151.516 24.7344C151.516 24.651 151.51 24.5521 151.5 24.4375C151.49 24.3229 151.469 24.2031 151.438 24.0781L151.359 23.4219L151.406 22.8438L151.453 22.2188C151.453 21.9896 151.344 21.7969 151.125 21.6406L150.844 21.5156C150.802 21.5052 150.74 21.4948 150.656 21.4844C150.583 21.4635 150.505 21.4479 150.422 21.4375C150.307 21.4375 150.12 21.526 149.859 21.7031C149.599 21.8698 149.276 22.0312 148.891 22.1875C148.526 22.3125 148.026 22.375 147.391 22.375C147.016 22.375 146.604 22.2188 146.156 21.9062C145.719 21.5938 145.5 20.9688 145.5 20.0312C145.5 18.8958 145.755 17.8958 146.266 17.0312C146.776 16.1562 147.391 15.4792 148.109 15C148.828 14.5208 149.422 14.2812 149.891 14.2812ZM162.391 13.6719L162.766 13.8594C162.891 13.9115 163.005 13.9844 163.109 14.0781C163.172 14.1406 163.208 14.2292 163.219 14.3438L163.234 14.6406L163.25 14.9844C163.25 15.5781 162.964 16.1615 162.391 16.7344L161.688 17.4062L160.766 18.375C160.609 18.5625 160.521 18.724 160.5 18.8594C160.5 18.9531 160.693 19.0365 161.078 19.1094H161.969C162.156 19.1094 162.354 19.1354 162.562 19.1875L163.016 19.3125C163.443 19.4062 163.896 19.6354 164.375 20C164.854 20.3542 165.276 20.9115 165.641 21.6719C166.016 22.4219 166.203 23.3698 166.203 24.5156C166.203 25.7031 165.635 27.5729 164.5 30.125C163.865 31.5833 163.323 32.6927 162.875 33.4531C162.375 34.349 161.682 35.1615 160.797 35.8906C159.911 36.6302 158.875 37 157.688 37C156.458 37 155.505 36.6094 154.828 35.8281C154.151 35.0469 153.562 33.9219 153.062 32.4531L152.734 30.4062L152.422 28.2344C152.422 27.9323 152.536 27.6302 152.766 27.3281C152.88 27.1823 152.99 27.0729 153.094 27C153.198 26.9271 153.318 26.8906 153.453 26.8906C153.839 26.8906 154.094 27.026 154.219 27.2969C154.323 27.5885 154.375 28.0729 154.375 28.75C154.375 28.9375 154.339 29.1562 154.266 29.4062L154.156 30.0625C154.156 30.7292 154.302 31.474 154.594 32.2969C154.875 33.1198 155.312 33.8385 155.906 34.4531C156.5 35.0677 157.198 35.375 158 35.375C158.49 35.375 159.057 35.1875 159.703 34.8125C160.349 34.4479 161.005 33.7917 161.672 32.8438C161.995 32.3854 162.292 31.849 162.562 31.2344C162.844 30.6198 163.104 29.9062 163.344 29.0938C163.406 28.875 163.562 28.4844 163.812 27.9219L164.141 27.1406L164.391 26.3906C164.526 25.9115 164.594 25.3802 164.594 24.7969C164.594 21.901 163.156 20.4531 160.281 20.4531C160.062 20.4531 159.911 20.4635 159.828 20.4844L159.406 20.5156L159.062 20.5312L158.672 20.5469C158.276 20.5469 158.062 20.4635 158.031 20.2969C158.031 19.9531 158.151 19.5521 158.391 19.0938C158.641 18.625 159.182 17.9688 160.016 17.125L160.547 16.6406C160.703 16.5156 160.833 16.3698 160.938 16.2031C161.052 16.0365 161.109 15.8542 161.109 15.6562C161.109 15.4375 160.969 15.224 160.688 15.0156C160.417 14.7969 160.12 14.6875 159.797 14.6875C159.203 14.6875 158.75 14.75 158.438 14.875C158.135 15 157.792 15.1719 157.406 15.3906C157.031 15.6094 156.729 15.7188 156.5 15.7188C156.417 15.7188 156.333 15.6615 156.25 15.5469C156.188 15.4323 156.156 15.3177 156.156 15.2031C156.156 14.849 156.339 14.5208 156.703 14.2188C157.068 13.9062 157.573 13.6562 158.219 13.4688C158.865 13.2812 159.573 13.1875 160.344 13.1875C161.125 13.1875 161.807 13.349 162.391 13.6719ZM176.219 0.296875C176.927 0.296875 177.526 0.494792 178.016 0.890625C178.505 1.28646 178.87 1.8125 179.109 2.46875C179.359 3.125 179.484 3.78646 179.484 4.45312C179.484 4.77604 179.464 5.08333 179.422 5.375C179.38 5.65625 179.297 6.01562 179.172 6.45312C178.964 7.22396 178.568 8.05729 177.984 8.95312C177.401 9.84896 176.542 10.724 175.406 11.5781C174.917 11.9531 174.292 12.3385 173.531 12.7344C172.896 13.0573 172.12 13.3802 171.203 13.7031C171.047 14.6615 170.969 15.6302 170.969 16.6094L171.016 17L171.188 17.6406L171.484 18.7812C171.703 19.6562 171.911 20.3594 172.109 20.8906C172.318 21.4219 172.688 21.9271 173.219 22.4062C173.76 22.875 174.474 23.1094 175.359 23.1094C175.745 23.1094 176.198 23.0312 176.719 22.875C177.25 22.7188 177.74 22.3698 178.188 21.8281C178.646 21.276 178.875 20.474 178.875 19.4219C178.875 18.6719 178.708 18.0312 178.375 17.5C178.042 16.9583 177.62 16.5573 177.109 16.2969C176.599 16.0365 176.12 15.9062 175.672 15.9062C175.495 15.9062 175.328 15.9271 175.172 15.9688C175.016 16.0104 174.818 16.0938 174.578 16.2188C174.193 16.3958 173.875 16.625 173.625 16.9062L173.438 17.1562L173.156 17.5938C172.948 17.9375 172.766 18.1094 172.609 18.1094C172.141 18.1094 171.906 17.7708 171.906 17.0938C171.906 16.2083 172.339 15.4948 173.203 14.9531C173.651 14.6823 174.099 14.4792 174.547 14.3438C174.995 14.2083 175.479 14.1406 176 14.1406C177.104 14.1406 178.156 14.4792 179.156 15.1562C180.167 15.8333 180.672 17.3333 180.672 19.6562C180.672 20.0521 180.635 20.4531 180.562 20.8594C180.49 21.2656 180.375 21.6719 180.219 22.0781C179.938 22.8594 179.38 23.5365 178.547 24.1094C177.724 24.6823 176.573 24.9688 175.094 24.9688C174.01 24.9688 173.073 24.6667 172.281 24.0625C171.5 23.4479 170.875 22.7135 170.406 21.8594C170.302 21.651 170.208 21.4583 170.125 21.2812C170.042 21.1042 169.953 20.8958 169.859 20.6562L169.578 19.6719L169.469 18.9531C169.469 18.8177 169.417 18.5312 169.312 18.0938L169.141 16.9531L169.078 15.9375C169.078 15.7188 169.099 15.4479 169.141 15.125C169.182 14.8021 169.25 14.4427 169.344 14.0469C168.917 14.1406 168.427 14.1875 167.875 14.1875C167.5 14.1875 167.151 14.1719 166.828 14.1406C166.495 14.1094 166.156 14.0521 165.812 13.9688C165.156 13.8229 164.609 13.6198 164.172 13.3594C163.734 13.0885 163.516 12.7969 163.516 12.4844C163.516 12.1719 163.609 11.7708 163.797 11.2812C163.984 10.7812 164.208 10.5312 164.469 10.5312C164.625 10.5312 164.807 10.6719 165.016 10.9531C165.297 11.3594 165.74 11.6927 166.344 11.9531C167 12.1823 167.625 12.2969 168.219 12.2969C168.781 12.2969 169.25 12.2188 169.625 12.0625C169.729 11.0417 169.854 10.0729 170 9.15625C170.146 8.22917 170.323 7.33333 170.531 6.46875C170.938 4.80208 171.604 3.35938 172.531 2.14062C173.458 0.911458 174.688 0.296875 176.219 0.296875ZM171.422 11.75C172.401 11.4792 173.349 10.9948 174.266 10.2969C175.182 9.59896 175.943 8.78646 176.547 7.85938C177.161 6.93229 177.469 6.01042 177.469 5.09375C177.469 4.16667 177.312 3.43229 177 2.89062C176.688 2.34896 176.312 2.07812 175.875 2.07812C175.385 2.07812 174.865 2.36979 174.312 2.95312C173.771 3.52604 173.292 4.29167 172.875 5.25C172.458 6.19792 172.146 7.28646 171.938 8.51562L171.859 9.26562L171.812 9.89062L171.719 10.5312C171.708 10.625 171.677 10.7656 171.625 10.9531C171.583 11.1406 171.516 11.4062 171.422 11.75ZM187.281 25H184.469V7.84375H187.281V25ZM184.25 3.20312C184.25 2.57812 184.406 2.125 184.719 1.84375C185.042 1.5625 185.438 1.42188 185.906 1.42188C186.344 1.42188 186.724 1.5625 187.047 1.84375C187.38 2.125 187.547 2.57812 187.547 3.20312C187.547 3.81771 187.38 4.27083 187.047 4.5625C186.724 4.85417 186.344 5 185.906 5C185.438 5 185.042 4.85417 184.719 4.5625C184.406 4.27083 184.25 3.81771 184.25 3.20312ZM192.859 14.5625C193.37 14.5625 193.708 14.6823 193.875 14.9219C193.927 15.0052 193.979 15.1562 194.031 15.375C194.094 15.5833 194.125 15.8021 194.125 16.0312L194.109 17.2031L194.094 18.2812L194.109 18.7812L194.125 19.2656C194.448 19.2656 195.01 19.1406 195.812 18.8906C196.615 18.6406 197.203 18.3906 197.578 18.1406C197.964 17.8802 198.208 17.6198 198.312 17.3594L198.422 16.9531L198.547 16.1719C198.599 15.7865 198.714 15.5052 198.891 15.3281C199.068 15.1406 199.422 15.0469 199.953 15.0469C200.068 15.0469 200.156 15.125 200.219 15.2812L200.516 16.5781C200.661 17.3073 200.839 17.9896 201.047 18.625L201.172 19.1719C201.193 19.276 201.312 19.5521 201.531 20L202.484 21.8281C202.651 22.1302 202.948 22.4167 203.375 22.6875C203.792 22.9271 204.198 23.0469 204.594 23.0469C205.219 23.0469 205.745 22.9219 206.172 22.6719C206.609 22.4219 207.172 22.0573 207.859 21.5781C208.547 21.0885 209.005 20.8438 209.234 20.8438C209.349 20.8438 209.448 20.9062 209.531 21.0312C209.625 21.1458 209.688 21.2812 209.719 21.4375C209.719 21.9375 209.448 22.4479 208.906 22.9688C208.375 23.4792 207.682 23.901 206.828 24.2344C205.974 24.5677 205.156 24.7344 204.375 24.7344C203.969 24.7344 203.625 24.7135 203.344 24.6719C203.062 24.6302 202.776 24.5521 202.484 24.4375C202.005 24.25 201.536 23.8281 201.078 23.1719C200.661 22.5573 200.214 21.5677 199.734 20.2031L199.547 19.5312C199.484 19.2812 199.406 19.0625 199.312 18.875C199.229 18.6875 199.135 18.5938 199.031 18.5938C198.938 18.5938 198.766 18.7188 198.516 18.9688C198.266 19.2188 198.021 19.4167 197.781 19.5625L197.594 19.6406L197.391 19.7188L197.141 19.8438L196.891 19.9688L196.344 20.2188L195.719 20.3281L194.516 20.5156C194.411 21.1198 194.359 21.651 194.359 22.1094C194.359 22.5573 194.443 22.9844 194.609 23.3906C194.786 23.7969 194.875 24.1927 194.875 24.5781C194.875 24.7969 194.661 24.9062 194.234 24.9062C193.828 24.9062 193.51 24.7865 193.281 24.5469C193.062 24.3073 192.953 23.849 192.953 23.1719V22.1094C192.922 21.8802 192.88 21.7188 192.828 21.625C192.786 21.5312 192.719 21.2552 192.625 20.7969L192.125 20.875L191.641 20.9062C190.974 20.9062 190.641 20.5833 190.641 19.9375C190.641 19.5729 190.943 19.3906 191.547 19.3906L192.531 19.4219L192.562 15.625C192.562 15.4896 192.536 15.3542 192.484 15.2188L192.406 14.8906C192.406 14.8073 192.443 14.7448 192.516 14.7031C192.599 14.651 192.714 14.6042 192.859 14.5625ZM209.188 14.0469C209.271 14.1302 209.312 14.2708 209.312 14.4688L209.297 14.8281L209.281 15.1719V15.9219L209.219 16.4844L209.156 17.6406V18.7188C209.156 19.3333 209.234 20.0052 209.391 20.7344C209.547 21.4635 209.724 21.8281 209.922 21.8281C210.307 21.8281 210.62 21.6562 210.859 21.3125C211.109 20.9583 211.396 20.4062 211.719 19.6562C212.052 18.9062 212.349 18.3906 212.609 18.1094L213.406 17.3438L214.609 16.2812C215.568 15.4792 216.224 15.0781 216.578 15.0781C216.693 15.0781 216.854 15.2031 217.062 15.4531C217.25 15.7031 217.344 15.9062 217.344 16.0625C217.344 16.2188 217.25 16.3906 217.062 16.5781C216.917 16.724 216.661 16.9375 216.297 17.2188L215.234 17.9844L214.688 18.3906L214.438 18.5938L214.219 18.8438C214.135 18.9583 214.036 19.1615 213.922 19.4531C213.839 19.7344 213.797 20.0781 213.797 20.4844C213.797 21.1406 213.969 21.7552 214.312 22.3281C214.656 22.8906 215.37 23.1719 216.453 23.1719C217.193 23.1719 217.917 22.9844 218.625 22.6094C219.344 22.2344 219.932 21.8385 220.391 21.4219C220.849 21.0052 221.318 20.7969 221.797 20.7969C221.911 20.7969 222.026 20.8906 222.141 21.0781L222.234 21.3281L222.266 21.6094C222.266 21.8073 221.849 22.2448 221.016 22.9219C220.734 23.151 220.526 23.3177 220.391 23.4219C220.37 23.4323 220.172 23.5729 219.797 23.8438C219.411 24.0938 219.031 24.3073 218.656 24.4844C218.281 24.6615 217.88 24.7969 217.453 24.8906C217.026 24.9844 216.573 25.0312 216.094 25.0312C215.24 25.0312 214.359 24.776 213.453 24.2656C212.547 23.7448 212.094 22.974 212.094 21.9531C211.312 22.9844 210.719 23.6927 210.312 24.0781C209.906 24.4531 209.552 24.6406 209.25 24.6406C208.823 24.6406 208.542 24.5208 208.406 24.2812C208.281 24.0312 208.172 23.5729 208.078 22.9062C207.995 22.2396 207.896 21.7292 207.781 21.375C207.562 20.75 207.453 20.2812 207.453 19.9688L207.484 19.6094L207.516 19.0781L207.438 18.5938L207.391 18.0469V17.7031L207.453 17.2656L207.547 16.5156V15.5625C207.547 14.8229 207.615 14.3698 207.75 14.2031C207.885 14.0365 208.13 13.9531 208.484 13.9531C208.828 13.9531 209.062 13.9844 209.188 14.0469ZM224.031 11.9688C224.531 11.9688 224.964 12.3021 225.328 12.9688C225.703 13.6354 225.891 14.776 225.891 16.3906L225.875 16.9844L225.859 17.5781C225.859 21.099 226.036 22.8594 226.391 22.8594C226.734 22.8594 227.094 22.6719 227.469 22.2969C227.844 21.9219 228.214 21.4167 228.578 20.7812L229.625 18.7812L230.422 17.1875L231.094 15.9531C231.479 15.2031 231.818 14.6719 232.109 14.3594C232.401 14.0052 232.714 13.8281 233.047 13.8281C233.568 13.8281 233.943 14.099 234.172 14.6406C234.411 15.1719 234.609 16.0052 234.766 17.1406C234.922 18.2656 235.031 18.9323 235.094 19.1406L235.406 20.375C235.448 20.5625 235.484 20.7396 235.516 20.9062C235.557 21.0625 235.609 21.2292 235.672 21.4062L235.906 22.0938C236.021 22.4479 236.188 22.7708 236.406 23.0625C236.583 23.3021 236.828 23.4688 237.141 23.5625H237.562C238.094 23.5 238.484 23.3594 238.734 23.1406C238.984 22.9427 239.281 22.6406 239.625 22.2344C239.979 21.8281 240.318 21.5417 240.641 21.375C240.786 21.2917 240.953 21.25 241.141 21.25C241.328 21.25 241.469 21.2917 241.562 21.375C241.708 21.5 241.781 21.7448 241.781 22.1094C241.781 22.3385 241.49 22.724 240.906 23.2656C240.375 23.7656 239.734 24.2604 238.984 24.75C238.276 25.1979 237.802 25.4219 237.562 25.4219C236.312 25.4219 235.396 24.875 234.812 23.7812C234.146 22.3021 233.76 21.375 233.656 21L233.5 19.4375C233.406 18.4375 233.292 17.6458 233.156 17.0625C233.031 16.4688 232.87 16.1719 232.672 16.1719C232.484 16.1719 232.281 16.4688 232.062 17.0625C231.719 17.9688 231.484 18.5156 231.359 18.7031L230.984 19.2031C230.87 19.3177 230.693 19.6615 230.453 20.2344C229.984 21.4219 229.344 22.5156 228.531 23.5156C227.719 24.5052 226.839 25 225.891 25C224.901 25 224.406 24.3802 224.406 23.1406V21.4375L224.344 19.8594L224.281 17.75L224.25 16.3906V15.4531C224.25 15.1823 224.188 14.8438 224.062 14.4375C223.938 14.0312 223.797 13.8281 223.641 13.8281C223.401 13.8281 223.12 13.901 222.797 14.0469C222.432 14.1823 222.094 14.375 221.781 14.625L221.328 15.0625L220.891 15.4688C220.818 15.5208 220.714 15.5625 220.578 15.5938C220.391 15.5938 220.208 15.5312 220.031 15.4062C219.844 15.2708 219.745 15.1198 219.734 14.9531C219.734 14.5469 220.047 14.1719 220.672 13.8281C221.078 13.5885 221.464 13.2865 221.828 12.9219C222.151 12.599 222.448 12.3594 222.719 12.2031C222.99 12.0469 223.427 11.9688 224.031 11.9688Z" fill="#96C05B"/>
</svg>
