<svg width="417" height="40" viewBox="0 0 417 40" fill="none" xmlns="http://www.w3.org/2000/svg">
<path d="M8.28125 4.54688C9.9375 4.54688 11.1146 5.98958 11.8125 8.875C11.875 9.09375 11.9062 9.31771 11.9062 9.54688C11.9062 9.74479 11.875 9.89062 11.8125 9.98438C11.625 10.2656 11.2917 10.4062 10.8125 10.4062C10.2708 10.4062 9.95312 9.96875 9.85938 9.09375C9.85938 8.58333 9.77604 8.13021 9.60938 7.73438C9.48438 7.38021 9.17188 7.20312 8.67188 7.20312C7.95312 7.20312 7.22917 7.44271 6.5 7.92188C5.78125 8.39062 5.17188 8.88542 4.67188 9.40625C2.94271 11.2917 2.07812 13.5312 2.07812 16.125C2.07812 16.7604 2.19271 17.3073 2.42188 17.7656L2.84375 18.5156C3.01042 18.776 3.22396 19.0677 3.48438 19.3906C4.02604 20.0677 4.57292 20.5833 5.125 20.9375C5.67708 21.2917 6.22917 21.4688 6.78125 21.4688C7.10417 21.4688 7.54688 21.3385 8.10938 21.0781C8.68229 20.8177 9.26562 20.4896 9.85938 20.0938C10.4531 19.6875 10.8698 19.3385 11.1094 19.0469C11.2448 18.8802 11.3698 18.6719 11.4844 18.4219C11.599 18.1719 11.7604 18 11.9688 17.9062C12.1771 17.7917 12.6042 17.6823 13.25 17.5781L13.9844 17.5156C14.3906 17.5156 14.5938 17.6198 14.5938 17.8281C14.5938 18.2031 14.0885 18.8281 13.0781 19.7031C12.599 20.1198 12.0729 20.5521 11.5 21L9.71875 22.2969C9.08333 22.7344 8.53125 23.0677 8.0625 23.2969C7.59375 23.5156 7.11458 23.625 6.625 23.625C5.48958 23.625 4.09375 22.875 2.4375 21.375C1.90625 20.8958 1.48438 20.4427 1.17188 20.0156C0.859375 19.5885 0.625 19.1094 0.46875 18.5781C0.322917 18.0365 0.25 17.4115 0.25 16.7031C0.25 15.4635 0.40625 14.1927 0.71875 12.8906C1.03125 11.5781 1.46354 10.4844 2.01562 9.60938C2.32812 9.08854 2.85417 8.4375 3.59375 7.65625C4.33333 6.86458 5.15104 6.15104 6.04688 5.51562C6.94271 4.86979 7.6875 4.54688 8.28125 4.54688ZM24.6719 13.5781L25.1094 13.6406L25.5781 13.7344L26.0938 13.7656C26.2188 13.7656 26.3125 13.8021 26.375 13.875C26.4375 13.9375 26.5052 14.0885 26.5781 14.3281L26.75 15.4531C26.7604 15.8594 26.7708 16.375 26.7812 17C26.8021 17.625 26.8125 18.3594 26.8125 19.2031V20.5781C26.8125 21.3802 26.901 21.9948 27.0781 22.4219C27.2552 22.8385 27.6042 23.0469 28.125 23.0469L28.6406 23L29.1719 22.7969C29.4844 22.6406 29.7031 22.5521 29.8281 22.5312C30.0052 22.5312 30.1667 22.625 30.3125 22.8125C30.4583 22.9896 30.5312 23.2292 30.5312 23.5312C30.5312 23.8646 30.25 24.1719 29.6875 24.4531C29.1042 24.7135 28.4792 24.8438 27.8125 24.8438C27 24.8438 26.3854 24.6458 25.9688 24.25C25.5625 23.8438 25.2969 23.2396 25.1719 22.4375C25.1198 22.0729 25.0781 21.6198 25.0469 21.0781C25.0156 20.5365 25 19.9219 25 19.2344V17.2812L25.0156 16.9062L25.0312 16.5469V16.0312C24.9792 15.5417 24.8594 15.2969 24.6719 15.2969C24.2552 15.2969 23.901 15.5417 23.6094 16.0312C23.3281 16.5208 23.0833 17.1354 22.875 17.875L22.25 20.2344C21.1875 23.3906 19.651 24.9688 17.6406 24.9688C17.1927 24.9688 16.7708 24.7656 16.375 24.3594C15.9792 23.9531 15.7812 23.5573 15.7812 23.1719C15.7812 22.9115 15.901 22.6771 16.1406 22.4688C16.3906 22.25 16.6458 22.1406 16.9062 22.1406C17.1458 22.1406 17.3229 22.2448 17.4375 22.4531C17.5312 22.6615 17.6146 22.8073 17.6875 22.8906C17.7708 22.974 18.0417 23.0156 18.5 23.0156C19.25 23.0156 19.974 21.9479 20.6719 19.8125L21.4844 17.1406C21.7031 16.4531 21.9375 15.849 22.1875 15.3281C22.4375 14.7969 22.7604 14.375 23.1562 14.0625C23.5625 13.7396 24.0677 13.5781 24.6719 13.5781ZM42.0938 25.875L41.6094 29.7969C41.4948 30.776 41.1927 31.8906 40.7031 33.1406C40.2135 34.3906 39.5677 35.474 38.7656 36.3906C38.3698 36.849 37.9531 37.1927 37.5156 37.4219C37.0781 37.651 36.599 37.7656 36.0781 37.7656C35.5573 37.7656 34.9583 37.6198 34.2812 37.3281C33.6042 37.0469 32.9896 36.6562 32.4375 36.1562C31.8854 35.6667 31.4948 35.0938 31.2656 34.4375C31.1719 34.0833 31 33.7604 30.75 33.4688C30.4896 33.1875 30.3073 32.9271 30.2031 32.6875L29.9219 31.625L29.8281 31.3281L29.7344 31.0469L29.4219 30.5625C29.2656 30.3333 29.1771 30.125 29.1562 29.9375C29.1562 29.5833 29.2135 29.276 29.3281 29.0156C29.4219 28.7552 29.5781 28.625 29.7969 28.625C30.1094 28.625 30.4583 28.7656 30.8438 29.0469C31.2188 29.3385 31.4062 29.7292 31.4062 30.2188L31.375 30.6719L31.3438 31.1094L31.3906 31.5C31.4219 31.6458 31.4844 31.7708 31.5781 31.875L31.8438 32.2188L32.2031 32.625L32.3281 32.7969L32.4531 33.0312L32.7812 33.6094C33.1771 34.3281 33.6562 34.9062 34.2188 35.3438C34.7812 35.7917 35.3021 36.0156 35.7812 36.0156C36.4062 36.0156 37.0677 35.7031 37.7656 35.0781C38.4635 34.4531 39.0469 33.6094 39.5156 32.5469C39.7552 32.0052 39.9427 31.4271 40.0781 30.8125C40.224 30.2083 40.2969 29.6042 40.2969 29L40.375 27.3906L40.5312 25.5938L40.7031 23.6719L40.75 22.5L40.7812 21.1562L40.8125 20.0625C40.8125 19.5104 40.7344 19.2344 40.5781 19.2344C40.5156 19.2344 40.349 19.375 40.0781 19.6562C39.9948 19.75 39.9115 19.8385 39.8281 19.9219C39.6927 20.0573 39.5625 20.1719 39.4375 20.2656C39.1875 20.4323 38.875 20.5573 38.5 20.6406L38.0781 20.7188C37.9427 20.7396 37.8385 20.7656 37.7656 20.7969L37.3438 21.0156C37.1875 21.099 36.9688 21.1823 36.6875 21.2656C36.4271 21.3177 36.1042 21.3438 35.7188 21.3438C34.3958 21.3438 33.7344 20.8958 33.7344 20C33.7344 19.6875 33.875 19.2708 34.1562 18.75C34.2812 18.5417 34.4531 18.1406 34.6719 17.5469C34.776 17.2552 34.8594 17 34.9219 16.7812C34.9844 16.5521 35.0156 16.3802 35.0156 16.2656C35.0156 16.1927 34.974 16.125 34.8906 16.0625C34.8073 15.9896 34.7083 15.9375 34.5938 15.9062C34.4062 15.9062 34 16.0625 33.375 16.375C32.75 16.6875 32.3385 16.8438 32.1406 16.8438C31.8906 16.8438 31.651 16.7344 31.4219 16.5156C31.1927 16.2969 31.0781 16.0938 31.0781 15.9062C31.0781 15.7812 31.1875 15.6562 31.4062 15.5312C31.6458 15.4167 32.0156 15.276 32.5156 15.1094C32.6823 15.0573 32.8542 15 33.0312 14.9375C33.2917 14.8438 33.4948 14.75 33.6406 14.6562L36.3125 13.3906C36.7708 13.1927 37.1302 13.0938 37.3906 13.0938C37.5677 13.0938 37.724 13.1615 37.8594 13.2969C38.0052 13.4219 38.0938 13.5573 38.125 13.7031C38.125 13.9635 37.9062 14.4219 37.4688 15.0781L36.9062 15.9375L36.4531 16.6875C36.224 17.1146 35.9688 17.8385 35.6875 18.8594V19.3906C35.75 19.5052 35.9531 19.5625 36.2969 19.5625C37.2656 19.5625 38.526 18.9427 40.0781 17.7031C40.3073 17.5052 40.5312 17.2083 40.75 16.8125L41.0469 16.2969C41.1406 16.151 41.2135 16.0573 41.2656 16.0156C41.3698 15.8802 41.5573 15.8125 41.8281 15.8125C42.1719 15.8125 42.3438 16.2083 42.3438 17L42.3281 17.5469L42.3125 17.9219V18.3281L42.25 18.8438L42.1875 19.6875C42.1875 19.9688 42.2188 20.3906 42.2812 20.9531C42.3438 21.5052 42.375 21.9583 42.375 22.3125C42.375 23.2188 42.2812 24.4062 42.0938 25.875ZM43.3438 11.7812C43.7917 11.7812 44.1198 11.8646 44.3281 12.0312C44.4427 12.1146 44.5521 12.2292 44.6562 12.375L45.0156 12.9219L45.6719 13.9219L46.2344 14.5938L46.7031 15.1719L47.2031 15.9531L47.7188 16.7969C48.1875 17.4219 48.4531 17.8281 48.5156 18.0156L48.625 18.2812L48.7031 18.4688L48.8438 18.5312C49.0521 18.5312 49.3906 18.3906 49.8594 18.1094C49.9948 18.026 50.2292 17.9271 50.5625 17.8125C50.8333 17.7396 51.0938 17.5938 51.3438 17.375L51.75 16.9688C51.9792 16.7604 52.1771 16.599 52.3438 16.4844C52.5521 16.3385 52.75 16.2448 52.9375 16.2031L53.4219 16.1094C53.6406 16.0781 53.8229 16.0312 53.9688 15.9688C54.0417 15.9479 54.1198 15.8958 54.2031 15.8125L54.4531 15.6406L54.6719 15.5938C54.901 15.5938 55.0938 15.6667 55.25 15.8125C55.4167 15.9583 55.5 16.151 55.5 16.3906C55.5 16.6719 55.4062 16.9167 55.2188 17.125C55.0312 17.2917 54.7865 17.4375 54.4844 17.5625L53.7656 17.8281L53.4531 18.0156C53.3594 18.0781 53.2031 18.125 52.9844 18.1562L52.5469 18.25C52.3802 18.2812 52.1354 18.4115 51.8125 18.6406L51.1719 19.0469L50.7031 19.1875C50.4427 19.25 50.2552 19.3385 50.1406 19.4531C50.026 19.5469 49.9688 19.7188 49.9688 19.9688C49.9688 20.1979 50.0417 20.4531 50.1875 20.7344C50.2708 20.8698 50.349 21 50.4219 21.125C50.4948 21.25 50.5521 21.3385 50.5938 21.3906L50.9531 21.875L52.3281 23.7188L53.0625 24.6562C53.1667 24.7708 53.2708 24.9167 53.375 25.0938L53.6406 25.6094C53.7865 25.9323 53.8594 26.276 53.8594 26.6406C53.8594 27.1094 53.5833 27.4271 53.0312 27.5938C52.875 27.6562 52.7135 27.6875 52.5469 27.6875C52.4219 27.6875 52.2865 27.6562 52.1406 27.5938C51.9219 27.5 51.776 27.3802 51.7031 27.2344L51.5 26.3125C51.4167 25.8333 51.2865 25.4375 51.1094 25.125L50.4375 23.9531L49.6875 22.7344C49.1875 21.901 48.7344 21.2917 48.3281 20.9062C47.651 21.1667 47.0885 21.5052 46.6406 21.9219C46.4219 22.1094 46.2031 22.3125 45.9844 22.5312C45.776 22.75 45.5833 22.9792 45.4062 23.2188L44.4844 24.4375C44.2031 24.8125 43.9479 25 43.7188 25C43.5 25 43.3073 24.8698 43.1406 24.6094C42.9844 24.3385 42.9062 24.0833 42.9062 23.8438C42.9062 23.5625 43.1562 23.0938 43.6562 22.4375C44.1667 21.7708 44.625 21.2604 45.0312 20.9062C45.2708 20.6875 45.5833 20.5156 45.9688 20.3906C46.0625 20.3698 46.151 20.349 46.2344 20.3281C46.3177 20.2969 46.401 20.2604 46.4844 20.2188L46.7812 20.0625C46.8646 20.0104 46.9635 19.9167 47.0781 19.7812C47.2031 19.6458 47.3229 19.474 47.4375 19.2656L46.7969 18.3125L46.1875 17.2812L45.9375 16.9531L45.6406 16.5938L45.3906 16.2656L45.0156 15.6719L44.75 15.2344L44.5 14.9375L44.0625 14.4531L43.2344 13.4375C43.0573 13.1875 42.9062 12.8802 42.7812 12.5156V12.0938C42.8958 11.8854 43.0833 11.7812 43.3438 11.7812ZM61.0625 12.5156C61.4583 12.5156 61.7552 12.5677 61.9531 12.6719C62.0781 12.724 62.1875 12.7917 62.2812 12.875C62.3854 12.9375 62.5 13.0365 62.625 13.1719L63.1094 13.6094L63.4531 13.8281C63.5365 13.8594 63.599 13.9219 63.6406 14.0156C63.6719 14.0573 63.6979 14.1667 63.7188 14.3438L63.7656 14.7344C63.776 14.8906 63.8021 15.0312 63.8438 15.1562C63.8958 15.2812 63.974 15.349 64.0781 15.3594C64.3594 15.3594 64.6458 15.2812 64.9375 15.125C65.2292 14.9583 65.4427 14.8698 65.5781 14.8594C65.8594 14.8594 66.099 15.2031 66.2969 15.8906C66.4948 16.5677 66.5938 17.3073 66.5938 18.1094L66.5469 18.5938L66.5 19.0469C66.5 19.2031 66.5312 19.375 66.5938 19.5625L66.7031 19.75L66.8281 19.9688L66.9219 20.1719V20.7656V21.7969C66.9531 21.9844 67.0469 22.2708 67.2031 22.6562C67.3698 23.0312 67.4896 23.2656 67.5625 23.3594L67.8125 23.6875L68.0469 24C68.1198 24.1042 68.1823 24.2552 68.2344 24.4531C68.2969 24.6094 68.3281 24.7812 68.3281 24.9688C68.3281 25.125 68.2865 25.25 68.2031 25.3438C68.151 25.4271 67.9583 25.5156 67.625 25.6094H67.0156C66.8385 25.526 66.6042 25.3333 66.3125 25.0312C66.0208 24.7292 65.849 24.5156 65.7969 24.3906V23.6562L65.4688 22.9688C65.4062 22.8542 65.3438 22.6875 65.2812 22.4688L65.0938 21.7344V20.9062C65.0938 20.7396 65.0885 20.6146 65.0781 20.5312C65.0677 20.4479 65.0312 20.3229 64.9688 20.1562C64.9062 19.8854 64.8021 19.75 64.6562 19.75C64.5521 19.75 64.4115 19.8385 64.2344 20.0156C64.0781 20.1927 63.9635 20.2969 63.8906 20.3281C63.8281 20.349 63.6875 20.3802 63.4688 20.4219L63.1562 20.3906L62.8906 20.3594C62.5469 20.3594 62.2135 20.7448 61.8906 21.5156C61.7656 21.8281 61.6719 22.0156 61.6094 22.0781L61.5 22.1719L60.9844 22.5781C60.5885 22.8698 60.1458 23.2708 59.6562 23.7812C59.4167 24.0417 59.1719 24.224 58.9219 24.3281L58.5156 24.4219L57.9219 24.4531H57.1875C56.9062 24.3385 56.5938 24.0573 56.25 23.6094C55.9167 23.151 55.75 22.7292 55.75 22.3438C55.75 22.1042 55.8333 21.7188 56 21.1875L56.1875 20.5156L56.2969 20.0625C57.2552 15.0312 58.8438 12.5156 61.0625 12.5156ZM60.7812 14.4375C60.3333 14.4375 59.9427 14.6458 59.6094 15.0625C59.4844 15.2292 59.3594 15.4219 59.2344 15.6406C59.1198 15.8594 59.0156 16.0885 58.9219 16.3281L58.5312 17.5156C58.4688 17.7031 58.401 17.8333 58.3281 17.9062C58.2656 17.9688 58.2031 18.1042 58.1406 18.3125L58 19.4531C58 19.6094 57.901 20.2292 57.7031 21.3125V22.1094C57.7969 22.3906 57.9375 22.5312 58.125 22.5312C58.4583 22.5312 58.9844 22.1927 59.7031 21.5156C60.0677 21.1719 60.4115 20.8073 60.7344 20.4219C61.0677 20.0365 61.3802 19.625 61.6719 19.1875C62.2552 18.3333 62.5781 17.6354 62.6406 17.0938C62.6406 16.8229 62.5677 16.4896 62.4219 16.0938C62.2969 15.6667 62.0833 15.2865 61.7812 14.9531C61.5 14.6094 61.1667 14.4375 60.7812 14.4375ZM72.4062 13.5781C72.9062 13.5781 73.2292 13.7135 73.375 13.9844C73.5208 14.2448 73.5938 14.6302 73.5938 15.1406L73.5469 16.2188L73.4688 17.4688L73.3281 19.2344L74.9219 19.1562C75.3594 19.1562 75.7031 19.1406 75.9531 19.1094C76.2031 19.0677 76.4167 19.0052 76.5938 18.9219C76.7708 18.8385 76.9323 18.6406 77.0781 18.3281C77.2031 18.026 77.3594 17.5104 77.5469 16.7812C77.6406 16.4167 77.7031 16.1823 77.7344 16.0781C77.8281 15.7344 77.9219 15.4635 78.0156 15.2656C78.1198 15.0677 78.4271 14.7292 78.9375 14.25C79.3125 13.9062 79.6719 13.651 80.0156 13.4844C80.3906 13.349 80.8385 13.2812 81.3594 13.2812C81.6302 13.2812 81.8333 13.2865 81.9688 13.2969C82.1042 13.3073 82.2448 13.3333 82.3906 13.375C82.5365 13.4167 82.6667 13.4583 82.7812 13.5C82.9062 13.5417 83.0156 13.5938 83.1094 13.6562L83.8281 14.0469L84.5781 14.3594C84.7552 14.4427 84.9271 14.5938 85.0938 14.8125C85.2708 15.0208 85.4896 15.4167 85.75 16L86.1562 16.8438C86.3958 17.3542 86.5677 17.7708 86.6719 18.0938C86.7865 18.4062 86.8438 18.7344 86.8438 19.0781C86.8438 19.4844 86.7969 19.8906 86.7031 20.2969C86.6094 20.6927 86.4635 21.1042 86.2656 21.5312C85.901 22.3333 85.5573 22.9323 85.2344 23.3281C84.9115 23.6927 84.4167 24.0521 83.75 24.4062C83.4271 24.5729 83.0677 24.7031 82.6719 24.7969C82.2865 24.8906 81.875 24.9375 81.4375 24.9375C78.6146 24.9375 77.2031 23.349 77.2031 20.1719C76.8906 20.2969 76.6406 20.375 76.4531 20.4062L75.3438 20.4844C75.0521 20.4844 74.8594 20.4948 74.7656 20.5156L73.3594 20.7031C73.3594 21.0677 73.3906 21.5573 73.4531 22.1719C73.4844 22.4115 73.5208 22.7135 73.5625 23.0781C73.6042 23.4323 73.6562 23.7812 73.7188 24.125V24.6094C73.625 24.7865 73.4115 24.875 73.0781 24.875C72.6927 24.875 72.401 24.7604 72.2031 24.5312C72.0156 24.2917 71.9219 23.8073 71.9219 23.0781L71.9531 22.5469L71.9844 22.0156L71.9219 21.5938L71.8281 21.1562L71.7969 20.7344L70.8125 20.8438C70.4062 20.8438 70.1406 20.7656 70.0156 20.6094C69.901 20.4427 69.8438 20.1771 69.8438 19.8125C69.8438 19.4479 70.1094 19.2656 70.6406 19.2656L71.0938 19.2812L71.7969 19.2969C71.7969 19.1302 71.7969 18.974 71.7969 18.8281C71.7969 18.6719 71.8073 18.4948 71.8281 18.2969L71.9219 17.4375L72.0938 15.3906C72.0938 15.2552 72.0885 15.1094 72.0781 14.9531C72.0677 14.7865 72.0469 14.6146 72.0156 14.4375L71.9531 13.8594C71.9531 13.7969 72 13.7344 72.0938 13.6719C72.1875 13.6094 72.2917 13.5781 72.4062 13.5781ZM81.4062 14.8594C81 14.8594 80.5156 15.1771 79.9531 15.8125C79.6094 16.1875 79.375 16.5677 79.25 16.9531L79.1406 17.625L79.0938 18.5625V20.0625C79.0938 21.2083 79.2812 22.0417 79.6562 22.5625C80.0312 23.0729 80.7188 23.3281 81.7188 23.3281C82.0208 23.3281 82.375 23.224 82.7812 23.0156C83.1979 22.7969 83.5156 22.5521 83.7344 22.2812C84.5677 21.2917 84.9844 20.3594 84.9844 19.4844C84.9844 19.0781 84.7708 18.3021 84.3438 17.1562C84.1875 16.7396 84.0417 16.4219 83.9062 16.2031C83.8229 16.0573 83.7604 15.9583 83.7188 15.9062C83.6771 15.8438 83.6146 15.776 83.5312 15.7031C83.4479 15.6198 83.3281 15.5469 83.1719 15.4844L82.6406 15.2969C82.0052 15.0052 81.5938 14.8594 81.4062 14.8594ZM102.984 11.9688C103.474 11.9688 103.906 12.3021 104.281 12.9688C104.656 13.625 104.844 14.7656 104.844 16.3906L104.828 16.9844L104.812 17.5781C104.812 21.099 104.995 22.8594 105.359 22.8594C106.266 22.8594 107.375 21.4062 108.688 18.5C110.083 15.3854 111.193 13.8281 112.016 13.8281C112.526 13.8281 112.901 14.099 113.141 14.6406C113.38 15.1719 113.573 15.9844 113.719 17.0781C113.865 18.1719 113.979 18.8594 114.062 19.1406L114.359 20.375L114.578 21.2344L114.859 22.0938C115.005 22.4792 115.172 22.8021 115.359 23.0625C115.557 23.3229 115.807 23.4896 116.109 23.5625H116.531C117.031 23.5 117.417 23.3646 117.688 23.1562L118.078 22.7812L118.578 22.2344C118.911 21.8385 119.25 21.5521 119.594 21.375C119.74 21.2917 119.911 21.25 120.109 21.25C120.297 21.25 120.438 21.2917 120.531 21.375C120.677 21.5 120.75 21.7448 120.75 22.1094C120.75 22.3385 120.458 22.724 119.875 23.2656C119.333 23.7552 118.698 24.2396 117.969 24.7188C117.25 25.1875 116.771 25.4219 116.531 25.4219C115.688 25.4219 115 25.1354 114.469 24.5625C113.938 23.9896 113.5 23.2292 113.156 22.2812C112.854 21.3958 112.536 20.1875 112.203 18.6562L112.094 17.6094L112.047 17C112.047 16.9271 112.036 16.8385 112.016 16.7344C111.995 16.6302 111.964 16.4948 111.922 16.3281C111.88 16.151 111.771 16.0625 111.594 16.0625C111.5 16.0625 111.385 16.1979 111.25 16.4688L110.75 17.6875C110.542 18.2604 110.396 18.6042 110.312 18.7188L108.562 21.8438C108.01 22.8229 107.438 23.5938 106.844 24.1562C106.26 24.7188 105.594 25 104.844 25C103.865 25 103.375 24.3802 103.375 23.1406V21.4375L103.312 19.8594L103.234 17.75L103.219 16.3906V15.4531C103.219 15.2135 103.156 14.8906 103.031 14.4844C102.906 14.0677 102.766 13.849 102.609 13.8281C102.328 13.8281 102.057 13.9062 101.797 14.0625C101.536 14.2083 101.245 14.4375 100.922 14.75C100.599 15.0521 100.344 15.2656 100.156 15.3906C100.104 15.4323 100.021 15.4792 99.9062 15.5312C99.8021 15.5729 99.6771 15.5938 99.5312 15.5938C99.3854 15.5938 99.2135 15.5365 99.0156 15.4219C98.8281 15.2969 98.7188 15.1406 98.6875 14.9531C98.6875 14.5469 99 14.1719 99.625 13.8281C99.8333 13.7135 100.021 13.5938 100.188 13.4688C100.365 13.3333 100.557 13.1615 100.766 12.9531C101.13 12.5781 101.438 12.3229 101.688 12.1875C101.948 12.0417 102.38 11.9688 102.984 11.9688ZM113.391 6.375C113.724 6.375 113.958 6.44792 114.094 6.59375C114.24 6.71875 114.312 6.86979 114.312 7.04688C114.312 7.22396 114.167 7.45312 113.875 7.73438C113.646 7.95312 113.13 8.35417 112.328 8.9375L111.141 9.79688C110.818 10.0365 110.089 10.2656 108.953 10.4844C108.401 10.5781 107.875 10.651 107.375 10.7031C106.885 10.7552 106.417 10.7812 105.969 10.7812C105.344 10.7812 105.031 10.6667 105.031 10.4375C105.031 10.125 105.078 9.85938 105.172 9.64062C105.266 9.42188 105.5 9.28125 105.875 9.21875H107.281H107.484C107.974 9.21875 108.385 9.19271 108.719 9.14062C109.052 9.08854 109.391 8.99479 109.734 8.85938C110.359 8.60938 110.854 8.30208 111.219 7.9375L112.234 6.92188C112.651 6.55729 113.036 6.375 113.391 6.375ZM137.312 12.5156C137.708 12.5156 138.005 12.5677 138.203 12.6719C138.328 12.724 138.438 12.7917 138.531 12.875C138.635 12.9375 138.75 13.0365 138.875 13.1719L139.359 13.6094L139.703 13.8281C139.786 13.8594 139.849 13.9219 139.891 14.0156C139.922 14.0573 139.948 14.1667 139.969 14.3438L140.016 14.7344C140.026 14.8906 140.052 15.0312 140.094 15.1562C140.146 15.2812 140.224 15.349 140.328 15.3594C140.609 15.3594 140.896 15.2812 141.188 15.125C141.479 14.9583 141.693 14.8698 141.828 14.8594C142.109 14.8594 142.349 15.2031 142.547 15.8906C142.745 16.5677 142.844 17.3073 142.844 18.1094L142.797 18.5938L142.75 19.0469C142.75 19.2031 142.781 19.375 142.844 19.5625L142.953 19.75L143.078 19.9688L143.172 20.1719V20.7656V21.7969C143.203 21.9844 143.297 22.2708 143.453 22.6562C143.62 23.0312 143.74 23.2656 143.812 23.3594L144.062 23.6875L144.297 24C144.37 24.1042 144.432 24.2552 144.484 24.4531C144.547 24.6094 144.578 24.7812 144.578 24.9688C144.578 25.125 144.536 25.25 144.453 25.3438C144.401 25.4271 144.208 25.5156 143.875 25.6094H143.266C143.089 25.526 142.854 25.3333 142.562 25.0312C142.271 24.7292 142.099 24.5156 142.047 24.3906V23.6562L141.719 22.9688C141.656 22.8542 141.594 22.6875 141.531 22.4688L141.344 21.7344V20.9062C141.344 20.7396 141.339 20.6146 141.328 20.5312C141.318 20.4479 141.281 20.3229 141.219 20.1562C141.156 19.8854 141.052 19.75 140.906 19.75C140.802 19.75 140.661 19.8385 140.484 20.0156C140.328 20.1927 140.214 20.2969 140.141 20.3281C140.078 20.349 139.938 20.3802 139.719 20.4219L139.406 20.3906L139.141 20.3594C138.797 20.3594 138.464 20.7448 138.141 21.5156C138.016 21.8281 137.922 22.0156 137.859 22.0781L137.75 22.1719L137.234 22.5781C136.839 22.8698 136.396 23.2708 135.906 23.7812C135.667 24.0417 135.422 24.224 135.172 24.3281L134.766 24.4219L134.172 24.4531H133.438C133.156 24.3385 132.844 24.0573 132.5 23.6094C132.167 23.151 132 22.7292 132 22.3438C132 22.1042 132.083 21.7188 132.25 21.1875L132.438 20.5156L132.547 20.0625C133.505 15.0312 135.094 12.5156 137.312 12.5156ZM137.031 14.4375C136.583 14.4375 136.193 14.6458 135.859 15.0625C135.734 15.2292 135.609 15.4219 135.484 15.6406C135.37 15.8594 135.266 16.0885 135.172 16.3281L134.781 17.5156C134.719 17.7031 134.651 17.8333 134.578 17.9062C134.516 17.9688 134.453 18.1042 134.391 18.3125L134.25 19.4531C134.25 19.6094 134.151 20.2292 133.953 21.3125V22.1094C134.047 22.3906 134.188 22.5312 134.375 22.5312C134.708 22.5312 135.234 22.1927 135.953 21.5156C136.318 21.1719 136.661 20.8073 136.984 20.4219C137.318 20.0365 137.63 19.625 137.922 19.1875C138.505 18.3333 138.828 17.6354 138.891 17.0938C138.891 16.8229 138.818 16.4896 138.672 16.0938C138.547 15.6667 138.333 15.2865 138.031 14.9531C137.75 14.6094 137.417 14.4375 137.031 14.4375ZM148.312 14.5625C148.823 14.5625 149.161 14.6823 149.328 14.9219C149.38 15.0052 149.432 15.1562 149.484 15.375C149.547 15.5833 149.578 15.8021 149.578 16.0312L149.562 17.2031L149.547 18.2812L149.562 18.7812L149.578 19.2656C149.901 19.2656 150.464 19.1406 151.266 18.8906C152.068 18.6406 152.656 18.3906 153.031 18.1406C153.417 17.8802 153.661 17.6198 153.766 17.3594L153.875 16.9531L154 16.1719C154.052 15.7865 154.167 15.5052 154.344 15.3281C154.521 15.1406 154.875 15.0469 155.406 15.0469C155.521 15.0469 155.609 15.125 155.672 15.2812L155.969 16.5781C156.115 17.3073 156.292 17.9896 156.5 18.625L156.625 19.1719C156.646 19.276 156.766 19.5521 156.984 20L157.938 21.8281C158.104 22.1302 158.401 22.4167 158.828 22.6875C159.245 22.9271 159.651 23.0469 160.047 23.0469C160.672 23.0469 161.198 22.9219 161.625 22.6719C162.062 22.4219 162.625 22.0573 163.312 21.5781C164 21.0885 164.458 20.8438 164.688 20.8438C164.802 20.8438 164.901 20.9062 164.984 21.0312C165.078 21.1458 165.141 21.2812 165.172 21.4375C165.172 21.9375 164.901 22.4479 164.359 22.9688C163.828 23.4792 163.135 23.901 162.281 24.2344C161.427 24.5677 160.609 24.7344 159.828 24.7344C159.422 24.7344 159.078 24.7135 158.797 24.6719C158.516 24.6302 158.229 24.5521 157.938 24.4375C157.458 24.25 156.99 23.8281 156.531 23.1719C156.115 22.5573 155.667 21.5677 155.188 20.2031L155 19.5312C154.938 19.2812 154.859 19.0625 154.766 18.875C154.682 18.6875 154.589 18.5938 154.484 18.5938C154.391 18.5938 154.219 18.7188 153.969 18.9688C153.719 19.2188 153.474 19.4167 153.234 19.5625L153.047 19.6406L152.844 19.7188L152.594 19.8438L152.344 19.9688L151.797 20.2188L151.172 20.3281L149.969 20.5156C149.865 21.1198 149.812 21.651 149.812 22.1094C149.812 22.5573 149.896 22.9844 150.062 23.3906C150.24 23.7969 150.328 24.1927 150.328 24.5781C150.328 24.7969 150.115 24.9062 149.688 24.9062C149.281 24.9062 148.964 24.7865 148.734 24.5469C148.516 24.3073 148.406 23.849 148.406 23.1719V22.1094C148.375 21.8802 148.333 21.7188 148.281 21.625C148.24 21.5312 148.172 21.2552 148.078 20.7969L147.578 20.875L147.094 20.9062C146.427 20.9062 146.094 20.5833 146.094 19.9375C146.094 19.5729 146.396 19.3906 147 19.3906L147.984 19.4219L148.016 15.625C148.016 15.4896 147.99 15.3542 147.938 15.2188L147.859 14.8906C147.859 14.8073 147.896 14.7448 147.969 14.7031C148.052 14.651 148.167 14.6042 148.312 14.5625ZM168.312 12.5156C168.708 12.5156 169.005 12.5677 169.203 12.6719C169.328 12.724 169.438 12.7917 169.531 12.875C169.635 12.9375 169.75 13.0365 169.875 13.1719L170.359 13.6094L170.703 13.8281C170.786 13.8594 170.849 13.9219 170.891 14.0156C170.922 14.0573 170.948 14.1667 170.969 14.3438L171.016 14.7344C171.026 14.8906 171.052 15.0312 171.094 15.1562C171.146 15.2812 171.224 15.349 171.328 15.3594C171.609 15.3594 171.896 15.2812 172.188 15.125C172.479 14.9583 172.693 14.8698 172.828 14.8594C173.109 14.8594 173.349 15.2031 173.547 15.8906C173.745 16.5677 173.844 17.3073 173.844 18.1094L173.797 18.5938L173.75 19.0469C173.75 19.2031 173.781 19.375 173.844 19.5625L173.953 19.75L174.078 19.9688L174.172 20.1719V20.7656V21.7969C174.203 21.9844 174.297 22.2708 174.453 22.6562C174.62 23.0312 174.74 23.2656 174.812 23.3594L175.062 23.6875L175.297 24C175.37 24.1042 175.432 24.2552 175.484 24.4531C175.547 24.6094 175.578 24.7812 175.578 24.9688C175.578 25.125 175.536 25.25 175.453 25.3438C175.401 25.4271 175.208 25.5156 174.875 25.6094H174.266C174.089 25.526 173.854 25.3333 173.562 25.0312C173.271 24.7292 173.099 24.5156 173.047 24.3906V23.6562L172.719 22.9688C172.656 22.8542 172.594 22.6875 172.531 22.4688L172.344 21.7344V20.9062C172.344 20.7396 172.339 20.6146 172.328 20.5312C172.318 20.4479 172.281 20.3229 172.219 20.1562C172.156 19.8854 172.052 19.75 171.906 19.75C171.802 19.75 171.661 19.8385 171.484 20.0156C171.328 20.1927 171.214 20.2969 171.141 20.3281C171.078 20.349 170.938 20.3802 170.719 20.4219L170.406 20.3906L170.141 20.3594C169.797 20.3594 169.464 20.7448 169.141 21.5156C169.016 21.8281 168.922 22.0156 168.859 22.0781L168.75 22.1719L168.234 22.5781C167.839 22.8698 167.396 23.2708 166.906 23.7812C166.667 24.0417 166.422 24.224 166.172 24.3281L165.766 24.4219L165.172 24.4531H164.438C164.156 24.3385 163.844 24.0573 163.5 23.6094C163.167 23.151 163 22.7292 163 22.3438C163 22.1042 163.083 21.7188 163.25 21.1875L163.438 20.5156L163.547 20.0625C164.505 15.0312 166.094 12.5156 168.312 12.5156ZM168.031 14.4375C167.583 14.4375 167.193 14.6458 166.859 15.0625C166.734 15.2292 166.609 15.4219 166.484 15.6406C166.37 15.8594 166.266 16.0885 166.172 16.3281L165.781 17.5156C165.719 17.7031 165.651 17.8333 165.578 17.9062C165.516 17.9688 165.453 18.1042 165.391 18.3125L165.25 19.4531C165.25 19.6094 165.151 20.2292 164.953 21.3125V22.1094C165.047 22.3906 165.188 22.5312 165.375 22.5312C165.708 22.5312 166.234 22.1927 166.953 21.5156C167.318 21.1719 167.661 20.8073 167.984 20.4219C168.318 20.0365 168.63 19.625 168.922 19.1875C169.505 18.3333 169.828 17.6354 169.891 17.0938C169.891 16.8229 169.818 16.4896 169.672 16.0938C169.547 15.6667 169.333 15.2865 169.031 14.9531C168.75 14.6094 168.417 14.4375 168.031 14.4375ZM185.797 13.5781L186.234 13.6406L186.703 13.7344L187.219 13.7656C187.344 13.7656 187.438 13.8021 187.5 13.875C187.562 13.9375 187.63 14.0885 187.703 14.3281L187.875 15.4531C187.885 15.8594 187.896 16.375 187.906 17C187.927 17.625 187.938 18.3594 187.938 19.2031V20.5781C187.938 21.3802 188.026 21.9948 188.203 22.4219C188.38 22.8385 188.729 23.0469 189.25 23.0469L189.766 23L190.297 22.7969C190.609 22.6406 190.828 22.5521 190.953 22.5312C191.13 22.5312 191.292 22.625 191.438 22.8125C191.583 22.9896 191.656 23.2292 191.656 23.5312C191.656 23.8646 191.375 24.1719 190.812 24.4531C190.229 24.7135 189.604 24.8438 188.938 24.8438C188.125 24.8438 187.51 24.6458 187.094 24.25C186.688 23.8438 186.422 23.2396 186.297 22.4375C186.245 22.0729 186.203 21.6198 186.172 21.0781C186.141 20.5365 186.125 19.9219 186.125 19.2344V17.2812L186.141 16.9062L186.156 16.5469V16.0312C186.104 15.5417 185.984 15.2969 185.797 15.2969C185.38 15.2969 185.026 15.5417 184.734 16.0312C184.453 16.5208 184.208 17.1354 184 17.875L183.375 20.2344C182.312 23.3906 180.776 24.9688 178.766 24.9688C178.318 24.9688 177.896 24.7656 177.5 24.3594C177.104 23.9531 176.906 23.5573 176.906 23.1719C176.906 22.9115 177.026 22.6771 177.266 22.4688C177.516 22.25 177.771 22.1406 178.031 22.1406C178.271 22.1406 178.448 22.2448 178.562 22.4531C178.656 22.6615 178.74 22.8073 178.812 22.8906C178.896 22.974 179.167 23.0156 179.625 23.0156C180.375 23.0156 181.099 21.9479 181.797 19.8125L182.609 17.1406C182.828 16.4531 183.062 15.849 183.312 15.3281C183.562 14.7969 183.885 14.375 184.281 14.0625C184.688 13.7396 185.193 13.5781 185.797 13.5781ZM197.797 25H194.984V7.84375H197.797V25ZM194.766 3.20312C194.766 2.57812 194.922 2.125 195.234 1.84375C195.557 1.5625 195.953 1.42188 196.422 1.42188C196.859 1.42188 197.24 1.5625 197.562 1.84375C197.896 2.125 198.062 2.57812 198.062 3.20312C198.062 3.81771 197.896 4.27083 197.562 4.5625C197.24 4.85417 196.859 5 196.422 5C195.953 5 195.557 4.85417 195.234 4.5625C194.922 4.27083 194.766 3.81771 194.766 3.20312ZM207.625 13.6719L208 13.8594C208.125 13.9115 208.24 13.9844 208.344 14.0781C208.406 14.1406 208.443 14.2292 208.453 14.3438L208.469 14.6406L208.484 14.9844C208.484 15.5781 208.198 16.1615 207.625 16.7344L206.922 17.4062L206 18.375C205.844 18.5625 205.755 18.724 205.734 18.8594C205.734 18.9531 205.927 19.0365 206.312 19.1094H207.203C207.391 19.1094 207.589 19.1354 207.797 19.1875L208.25 19.3125C208.677 19.4062 209.13 19.6354 209.609 20C210.089 20.3542 210.51 20.9115 210.875 21.6719C211.25 22.4219 211.438 23.3698 211.438 24.5156C211.438 25.7031 210.87 27.5729 209.734 30.125C209.099 31.5833 208.557 32.6927 208.109 33.4531C207.609 34.349 206.917 35.1615 206.031 35.8906C205.146 36.6302 204.109 37 202.922 37C201.693 37 200.74 36.6094 200.062 35.8281C199.385 35.0469 198.797 33.9219 198.297 32.4531L197.969 30.4062L197.656 28.2344C197.656 27.9323 197.771 27.6302 198 27.3281C198.115 27.1823 198.224 27.0729 198.328 27C198.432 26.9271 198.552 26.8906 198.688 26.8906C199.073 26.8906 199.328 27.026 199.453 27.2969C199.557 27.5885 199.609 28.0729 199.609 28.75C199.609 28.9375 199.573 29.1562 199.5 29.4062L199.391 30.0625C199.391 30.7292 199.536 31.474 199.828 32.2969C200.109 33.1198 200.547 33.8385 201.141 34.4531C201.734 35.0677 202.432 35.375 203.234 35.375C203.724 35.375 204.292 35.1875 204.938 34.8125C205.583 34.4479 206.24 33.7917 206.906 32.8438C207.229 32.3854 207.526 31.849 207.797 31.2344C208.078 30.6198 208.339 29.9062 208.578 29.0938C208.641 28.875 208.797 28.4844 209.047 27.9219L209.375 27.1406L209.625 26.3906C209.76 25.9115 209.828 25.3802 209.828 24.7969C209.828 21.901 208.391 20.4531 205.516 20.4531C205.297 20.4531 205.146 20.4635 205.062 20.4844L204.641 20.5156L204.297 20.5312L203.906 20.5469C203.51 20.5469 203.297 20.4635 203.266 20.2969C203.266 19.9531 203.385 19.5521 203.625 19.0938C203.875 18.625 204.417 17.9688 205.25 17.125L205.781 16.6406C205.938 16.5156 206.068 16.3698 206.172 16.2031C206.286 16.0365 206.344 15.8542 206.344 15.6562C206.344 15.4375 206.203 15.224 205.922 15.0156C205.651 14.7969 205.354 14.6875 205.031 14.6875C204.438 14.6875 203.984 14.75 203.672 14.875C203.37 15 203.026 15.1719 202.641 15.3906C202.266 15.6094 201.964 15.7188 201.734 15.7188C201.651 15.7188 201.568 15.6615 201.484 15.5469C201.422 15.4323 201.391 15.3177 201.391 15.2031C201.391 14.849 201.573 14.5208 201.938 14.2188C202.302 13.9062 202.807 13.6562 203.453 13.4688C204.099 13.2812 204.807 13.1875 205.578 13.1875C206.359 13.1875 207.042 13.349 207.625 13.6719ZM223.125 25.875L222.641 29.7969C222.526 30.776 222.224 31.8906 221.734 33.1406C221.245 34.3906 220.599 35.474 219.797 36.3906C219.401 36.849 218.984 37.1927 218.547 37.4219C218.109 37.651 217.63 37.7656 217.109 37.7656C216.589 37.7656 215.99 37.6198 215.312 37.3281C214.635 37.0469 214.021 36.6562 213.469 36.1562C212.917 35.6667 212.526 35.0938 212.297 34.4375C212.203 34.0833 212.031 33.7604 211.781 33.4688C211.521 33.1875 211.339 32.9271 211.234 32.6875L210.953 31.625L210.859 31.3281L210.766 31.0469L210.453 30.5625C210.297 30.3333 210.208 30.125 210.188 29.9375C210.188 29.5833 210.245 29.276 210.359 29.0156C210.453 28.7552 210.609 28.625 210.828 28.625C211.141 28.625 211.49 28.7656 211.875 29.0469C212.25 29.3385 212.438 29.7292 212.438 30.2188L212.406 30.6719L212.375 31.1094L212.422 31.5C212.453 31.6458 212.516 31.7708 212.609 31.875L212.875 32.2188L213.234 32.625L213.359 32.7969L213.484 33.0312L213.812 33.6094C214.208 34.3281 214.688 34.9062 215.25 35.3438C215.812 35.7917 216.333 36.0156 216.812 36.0156C217.438 36.0156 218.099 35.7031 218.797 35.0781C219.495 34.4531 220.078 33.6094 220.547 32.5469C220.786 32.0052 220.974 31.4271 221.109 30.8125C221.255 30.2083 221.328 29.6042 221.328 29L221.406 27.3906L221.562 25.5938L221.734 23.6719L221.781 22.5L221.812 21.1562L221.844 20.0625C221.844 19.5104 221.766 19.2344 221.609 19.2344C221.547 19.2344 221.38 19.375 221.109 19.6562C221.026 19.75 220.943 19.8385 220.859 19.9219C220.724 20.0573 220.594 20.1719 220.469 20.2656C220.219 20.4323 219.906 20.5573 219.531 20.6406L219.109 20.7188C218.974 20.7396 218.87 20.7656 218.797 20.7969L218.375 21.0156C218.219 21.099 218 21.1823 217.719 21.2656C217.458 21.3177 217.135 21.3438 216.75 21.3438C215.427 21.3438 214.766 20.8958 214.766 20C214.766 19.6875 214.906 19.2708 215.188 18.75C215.312 18.5417 215.484 18.1406 215.703 17.5469C215.807 17.2552 215.891 17 215.953 16.7812C216.016 16.5521 216.047 16.3802 216.047 16.2656C216.047 16.1927 216.005 16.125 215.922 16.0625C215.839 15.9896 215.74 15.9375 215.625 15.9062C215.438 15.9062 215.031 16.0625 214.406 16.375C213.781 16.6875 213.37 16.8438 213.172 16.8438C212.922 16.8438 212.682 16.7344 212.453 16.5156C212.224 16.2969 212.109 16.0938 212.109 15.9062C212.109 15.7812 212.219 15.6562 212.438 15.5312C212.677 15.4167 213.047 15.276 213.547 15.1094C213.714 15.0573 213.885 15 214.062 14.9375C214.323 14.8438 214.526 14.75 214.672 14.6562L217.344 13.3906C217.802 13.1927 218.161 13.0938 218.422 13.0938C218.599 13.0938 218.755 13.1615 218.891 13.2969C219.036 13.4219 219.125 13.5573 219.156 13.7031C219.156 13.9635 218.938 14.4219 218.5 15.0781L217.938 15.9375L217.484 16.6875C217.255 17.1146 217 17.8385 216.719 18.8594V19.3906C216.781 19.5052 216.984 19.5625 217.328 19.5625C218.297 19.5625 219.557 18.9427 221.109 17.7031C221.339 17.5052 221.562 17.2083 221.781 16.8125L222.078 16.2969C222.172 16.151 222.245 16.0573 222.297 16.0156C222.401 15.8802 222.589 15.8125 222.859 15.8125C223.203 15.8125 223.375 16.2083 223.375 17L223.359 17.5469L223.344 17.9219V18.3281L223.281 18.8438L223.219 19.6875C223.219 19.9688 223.25 20.3906 223.312 20.9531C223.375 21.5052 223.406 21.9583 223.406 22.3125C223.406 23.2188 223.312 24.4062 223.125 25.875ZM227.344 13.5781C227.844 13.5781 228.167 13.7135 228.312 13.9844C228.458 14.2448 228.531 14.6302 228.531 15.1406L228.484 16.2188L228.406 17.4688L228.266 19.2344L229.859 19.1562C230.297 19.1562 230.641 19.1406 230.891 19.1094C231.141 19.0677 231.354 19.0052 231.531 18.9219C231.708 18.8385 231.87 18.6406 232.016 18.3281C232.141 18.026 232.297 17.5104 232.484 16.7812C232.578 16.4167 232.641 16.1823 232.672 16.0781C232.766 15.7344 232.859 15.4635 232.953 15.2656C233.057 15.0677 233.365 14.7292 233.875 14.25C234.25 13.9062 234.609 13.651 234.953 13.4844C235.328 13.349 235.776 13.2812 236.297 13.2812C236.568 13.2812 236.771 13.2865 236.906 13.2969C237.042 13.3073 237.182 13.3333 237.328 13.375C237.474 13.4167 237.604 13.4583 237.719 13.5C237.844 13.5417 237.953 13.5938 238.047 13.6562L238.766 14.0469L239.516 14.3594C239.693 14.4427 239.865 14.5938 240.031 14.8125C240.208 15.0208 240.427 15.4167 240.688 16L241.094 16.8438C241.333 17.3542 241.505 17.7708 241.609 18.0938C241.724 18.4062 241.781 18.7344 241.781 19.0781C241.781 19.4844 241.734 19.8906 241.641 20.2969C241.547 20.6927 241.401 21.1042 241.203 21.5312C240.839 22.3333 240.495 22.9323 240.172 23.3281C239.849 23.6927 239.354 24.0521 238.688 24.4062C238.365 24.5729 238.005 24.7031 237.609 24.7969C237.224 24.8906 236.812 24.9375 236.375 24.9375C233.552 24.9375 232.141 23.349 232.141 20.1719C231.828 20.2969 231.578 20.375 231.391 20.4062L230.281 20.4844C229.99 20.4844 229.797 20.4948 229.703 20.5156L228.297 20.7031C228.297 21.0677 228.328 21.5573 228.391 22.1719C228.422 22.4115 228.458 22.7135 228.5 23.0781C228.542 23.4323 228.594 23.7812 228.656 24.125V24.6094C228.562 24.7865 228.349 24.875 228.016 24.875C227.63 24.875 227.339 24.7604 227.141 24.5312C226.953 24.2917 226.859 23.8073 226.859 23.0781L226.891 22.5469L226.922 22.0156L226.859 21.5938L226.766 21.1562L226.734 20.7344L225.75 20.8438C225.344 20.8438 225.078 20.7656 224.953 20.6094C224.839 20.4427 224.781 20.1771 224.781 19.8125C224.781 19.4479 225.047 19.2656 225.578 19.2656L226.031 19.2812L226.734 19.2969C226.734 19.1302 226.734 18.974 226.734 18.8281C226.734 18.6719 226.745 18.4948 226.766 18.2969L226.859 17.4375L227.031 15.3906C227.031 15.2552 227.026 15.1094 227.016 14.9531C227.005 14.7865 226.984 14.6146 226.953 14.4375L226.891 13.8594C226.891 13.7969 226.938 13.7344 227.031 13.6719C227.125 13.6094 227.229 13.5781 227.344 13.5781ZM236.344 14.8594C235.938 14.8594 235.453 15.1771 234.891 15.8125C234.547 16.1875 234.312 16.5677 234.188 16.9531L234.078 17.625L234.031 18.5625V20.0625C234.031 21.2083 234.219 22.0417 234.594 22.5625C234.969 23.0729 235.656 23.3281 236.656 23.3281C236.958 23.3281 237.312 23.224 237.719 23.0156C238.135 22.7969 238.453 22.5521 238.672 22.2812C239.505 21.2917 239.922 20.3594 239.922 19.4844C239.922 19.0781 239.708 18.3021 239.281 17.1562C239.125 16.7396 238.979 16.4219 238.844 16.2031C238.76 16.0573 238.698 15.9583 238.656 15.9062C238.615 15.8438 238.552 15.776 238.469 15.7031C238.385 15.6198 238.266 15.5469 238.109 15.4844L237.578 15.2969C236.943 15.0052 236.531 14.8594 236.344 14.8594ZM259.484 25H256.672V7.84375H259.484V25ZM256.453 3.20312C256.453 2.57812 256.609 2.125 256.922 1.84375C257.245 1.5625 257.641 1.42188 258.109 1.42188C258.547 1.42188 258.927 1.5625 259.25 1.84375C259.583 2.125 259.75 2.57812 259.75 3.20312C259.75 3.81771 259.583 4.27083 259.25 4.5625C258.927 4.85417 258.547 5 258.109 5C257.641 5 257.245 4.85417 256.922 4.5625C256.609 4.27083 256.453 3.81771 256.453 3.20312ZM265.062 14.5625C265.573 14.5625 265.911 14.6823 266.078 14.9219C266.13 15.0052 266.182 15.1562 266.234 15.375C266.297 15.5833 266.328 15.8021 266.328 16.0312L266.312 17.2031L266.297 18.2812L266.312 18.7812L266.328 19.2656C266.651 19.2656 267.214 19.1406 268.016 18.8906C268.818 18.6406 269.406 18.3906 269.781 18.1406C270.167 17.8802 270.411 17.6198 270.516 17.3594L270.625 16.9531L270.75 16.1719C270.802 15.7865 270.917 15.5052 271.094 15.3281C271.271 15.1406 271.625 15.0469 272.156 15.0469C272.271 15.0469 272.359 15.125 272.422 15.2812L272.719 16.5781C272.865 17.3073 273.042 17.9896 273.25 18.625L273.375 19.1719C273.396 19.276 273.516 19.5521 273.734 20L274.688 21.8281C274.854 22.1302 275.151 22.4167 275.578 22.6875C275.995 22.9271 276.401 23.0469 276.797 23.0469C277.422 23.0469 277.948 22.9219 278.375 22.6719C278.812 22.4219 279.375 22.0573 280.062 21.5781C280.75 21.0885 281.208 20.8438 281.438 20.8438C281.552 20.8438 281.651 20.9062 281.734 21.0312C281.828 21.1458 281.891 21.2812 281.922 21.4375C281.922 21.9375 281.651 22.4479 281.109 22.9688C280.578 23.4792 279.885 23.901 279.031 24.2344C278.177 24.5677 277.359 24.7344 276.578 24.7344C276.172 24.7344 275.828 24.7135 275.547 24.6719C275.266 24.6302 274.979 24.5521 274.688 24.4375C274.208 24.25 273.74 23.8281 273.281 23.1719C272.865 22.5573 272.417 21.5677 271.938 20.2031L271.75 19.5312C271.688 19.2812 271.609 19.0625 271.516 18.875C271.432 18.6875 271.339 18.5938 271.234 18.5938C271.141 18.5938 270.969 18.7188 270.719 18.9688C270.469 19.2188 270.224 19.4167 269.984 19.5625L269.797 19.6406L269.594 19.7188L269.344 19.8438L269.094 19.9688L268.547 20.2188L267.922 20.3281L266.719 20.5156C266.615 21.1198 266.562 21.651 266.562 22.1094C266.562 22.5573 266.646 22.9844 266.812 23.3906C266.99 23.7969 267.078 24.1927 267.078 24.5781C267.078 24.7969 266.865 24.9062 266.438 24.9062C266.031 24.9062 265.714 24.7865 265.484 24.5469C265.266 24.3073 265.156 23.849 265.156 23.1719V22.1094C265.125 21.8802 265.083 21.7188 265.031 21.625C264.99 21.5312 264.922 21.2552 264.828 20.7969L264.328 20.875L263.844 20.9062C263.177 20.9062 262.844 20.5833 262.844 19.9375C262.844 19.5729 263.146 19.3906 263.75 19.3906L264.734 19.4219L264.766 15.625C264.766 15.4896 264.74 15.3542 264.688 15.2188L264.609 14.8906C264.609 14.8073 264.646 14.7448 264.719 14.7031C264.802 14.651 264.917 14.6042 265.062 14.5625ZM281.547 13.5469C281.88 13.5469 282.099 13.6406 282.203 13.8281C282.318 14.0052 282.375 14.3698 282.375 14.9219V16.0312L282.344 16.6719L282.281 17.2812V18.7188L282.266 19.1719L282.25 19.6875L282.219 20.4844C282.219 20.5885 282.219 20.6875 282.219 20.7812C282.219 20.875 282.229 20.9792 282.25 21.0938C282.25 21.2083 282.266 21.3333 282.297 21.4688C282.339 21.6042 282.37 21.7188 282.391 21.8125C282.505 22.3333 282.63 22.5938 282.766 22.5938C282.849 22.5938 283.146 22.1042 283.656 21.125L284.297 19.9062C284.307 19.875 284.312 19.8542 284.312 19.8438C284.323 19.8229 284.359 19.7708 284.422 19.6875L284.656 19.3281C284.812 19.0573 284.943 18.7656 285.047 18.4531L285.297 17.8281C285.516 17.2865 285.792 16.8073 286.125 16.3906C286.396 16.0469 286.641 15.599 286.859 15.0469L287.109 14.2344C287.172 14.0469 287.266 13.8854 287.391 13.75C287.516 13.6146 287.714 13.5469 287.984 13.5469C288.328 13.5469 288.552 13.651 288.656 13.8594C288.76 14.0573 288.812 14.4115 288.812 14.9219V16.0312L288.766 16.6719L288.719 17.2812V18.7188L288.828 20.0156C288.828 20.099 288.828 20.1875 288.828 20.2812C288.828 20.375 288.849 20.5208 288.891 20.7188L289 21.2812C289.062 21.6979 289.156 22.0365 289.281 22.2969C289.406 22.5573 289.568 22.6875 289.766 22.6875C289.911 22.6875 290.141 22.3854 290.453 21.7812C290.63 21.4375 290.818 21.026 291.016 20.5469C291.224 20.0573 291.479 19.4375 291.781 18.6875L292.953 15.8281C293.089 15.5156 293.24 15.276 293.406 15.1094C293.583 14.9427 293.865 14.8594 294.25 14.8594C294.823 14.8594 295.198 14.9896 295.375 15.25C295.552 15.5104 295.734 16.1979 295.922 17.3125L296.297 19.7188C296.734 22.1667 297.354 23.3906 298.156 23.3906C298.438 23.3906 298.667 23.3177 298.844 23.1719C299.031 23.0156 299.255 22.7656 299.516 22.4219C299.786 22.0781 300.01 21.8542 300.188 21.75C300.375 21.6354 300.562 21.5781 300.75 21.5781C300.906 21.5781 301.057 21.6354 301.203 21.75C301.349 21.8646 301.422 22.1146 301.422 22.5C301.422 22.7292 301.198 23.0677 300.75 23.5156C300.521 23.7344 300.292 23.9375 300.062 24.125C299.844 24.3021 299.583 24.4896 299.281 24.6875C298.75 25.0312 298.365 25.2031 298.125 25.2031C297.344 25.2031 296.635 24.8906 296 24.2656C295.365 23.6302 294.922 22.3073 294.672 20.2969C294.651 20.1198 294.583 19.8594 294.469 19.5156C294.365 19.1302 294.312 18.8333 294.312 18.625L294.375 18.0156C294.375 17.401 294.281 17.0938 294.094 17.0938C294 17.0938 293.932 17.151 293.891 17.2656L293.453 18.5625L292.984 20.0469L292.625 21.0312C291.729 23.3958 290.682 24.5781 289.484 24.5781C288.891 24.5781 288.422 24.2604 288.078 23.625C287.745 22.9792 287.505 22.1771 287.359 21.2188C287.214 20.25 287.141 19.5052 287.141 18.9844L287.172 18.1094L287.234 17.375V17.5625L287.203 17.7656L287.016 18.125L286.734 18.625L286.562 18.9062L286.375 19.2344L285.422 21.3125C285.193 21.8021 284.953 22.2604 284.703 22.6875C284.589 22.8958 284.469 23.1042 284.344 23.3125C284.219 23.5208 284.109 23.6979 284.016 23.8438C283.557 24.5104 283.062 24.8438 282.531 24.8438C282.031 24.8438 281.589 24.4219 281.203 23.5781C280.818 22.7344 280.625 21.6198 280.625 20.2344L280.672 19.5938L280.719 18.9844L280.703 18.1562L280.688 17.3438L280.719 16.8906L280.75 16.4219L280.734 15.9375L280.719 15.4531V14.5938C280.719 14.25 280.771 13.9896 280.875 13.8125C280.99 13.6354 281.214 13.5469 281.547 13.5469ZM297.391 26.9219L296.75 27.125L296.047 27.3125L295.578 27.4062L295.141 27.5L294.766 27.5938L294.344 27.7344L293.859 27.9219L293.094 28.1094L292.297 28.2656C291.703 28.3906 290.646 28.7031 289.125 29.2031L288.641 29.3594L287.938 29.6562L287.016 30.125C286.776 30.2812 286.547 30.3958 286.328 30.4688C286.234 30.5 286.141 30.526 286.047 30.5469C285.953 30.5677 285.849 30.5781 285.734 30.5781C285.505 30.5781 285.302 30.4427 285.125 30.1719C284.958 29.901 284.875 29.6719 284.875 29.4844C284.875 29.2656 285.094 29.0156 285.531 28.7344L286.266 28.3438L287.25 28L288.359 27.7344L289.484 27.5469C289.62 27.526 289.76 27.5104 289.906 27.5C290.104 27.4479 290.276 27.4062 290.422 27.375C290.568 27.3438 290.719 27.3021 290.875 27.25C291.031 27.2083 291.198 27.151 291.375 27.0781L292.219 26.8281L293.547 26.5C294.255 26.3542 295.151 26.2812 296.234 26.2812C297.089 26.2812 297.516 26.4531 297.516 26.7969L297.391 26.9219ZM305.422 25H302.609V7.84375H305.422V25ZM302.391 3.20312C302.391 2.57812 302.547 2.125 302.859 1.84375C303.182 1.5625 303.578 1.42188 304.047 1.42188C304.484 1.42188 304.865 1.5625 305.188 1.84375C305.521 2.125 305.688 2.57812 305.688 3.20312C305.688 3.81771 305.521 4.27083 305.188 4.5625C304.865 4.85417 304.484 5 304.047 5C303.578 5 303.182 4.85417 302.859 4.5625C302.547 4.27083 302.391 3.81771 302.391 3.20312ZM325 14.2812C325.521 14.2812 326.031 14.4948 326.531 14.9219C327.042 15.3385 327.297 15.9635 327.297 16.7969C327.297 17.2969 327.224 17.6615 327.078 17.8906C326.932 18.1094 326.771 18.2188 326.594 18.2188C326.125 18.2188 325.891 18.1198 325.891 17.9219C325.891 17.7865 325.917 17.6354 325.969 17.4688L326.016 17.2344L326.047 16.9688C326.047 16.8021 325.911 16.6458 325.641 16.5C325.391 16.3438 325.146 16.2656 324.906 16.2656C324.646 16.2656 324.318 16.4583 323.922 16.8438C323.526 17.2292 323.161 17.6667 322.828 18.1562C322.505 18.6458 322.344 19.0052 322.344 19.2344C322.344 19.9635 322.896 20.3281 324 20.3281C324.146 20.3281 324.495 20.2188 325.047 20C325.297 19.9062 325.531 19.8385 325.75 19.7969C325.979 19.7448 326.146 19.7135 326.25 19.7031C326.365 19.6927 326.531 19.6875 326.75 19.6875C327.438 19.6875 327.87 19.9115 328.047 20.3594C328.234 20.8073 328.328 21.4896 328.328 22.4062V22.7031V22.9531V23.1562C328.328 23.3542 328.323 23.5312 328.312 23.6875C328.312 23.8333 328.297 23.9844 328.266 24.1406L328.203 24.7656L328.109 25.1562L327.969 26.1875V27.9219L327.984 28.3438L328 28.7812C328 30.3854 327.839 31.8385 327.516 33.1406C327.443 33.4427 327.359 33.7604 327.266 34.0938C327.172 34.4271 327.073 34.7292 326.969 35C326.792 35.5208 326.557 36.0469 326.266 36.5781C325.776 37.4948 325.25 38.2135 324.688 38.7344C324.135 39.2656 323.641 39.5312 323.203 39.5312C322.328 39.5312 321.547 39.4375 320.859 39.25C320.547 39.1667 320.203 39.0469 319.828 38.8906C319.453 38.7448 319.245 38.6615 319.203 38.6406C319.016 38.5365 318.88 38.4635 318.797 38.4219L316.609 37.2969C316.161 37.0677 315.474 36.4427 314.547 35.4219C313.609 34.4115 313.141 33.7656 313.141 33.4844C313.141 33.3698 313.193 33.2083 313.297 33C313.391 32.7917 313.438 32.6198 313.438 32.4844L313.359 32.1719L313.281 31.8906C313.281 31.7656 313.38 31.6406 313.578 31.5156C313.766 31.401 313.964 31.3438 314.172 31.3438C314.62 31.3438 314.969 31.401 315.219 31.5156C315.458 31.6406 315.578 31.8073 315.578 32.0156C315.578 32.1302 315.526 32.276 315.422 32.4531C315.318 32.6302 315.255 32.7917 315.234 32.9375C315.234 33.4167 315.646 34.0365 316.469 34.7969C317.292 35.5677 318.25 36.2656 319.344 36.8906C320.438 37.5156 321.297 37.8281 321.922 37.8281C322.964 37.8281 323.812 37.1875 324.469 35.9062C325.125 34.625 325.594 33.1615 325.875 31.5156C326.021 30.651 326.13 29.9115 326.203 29.2969C326.276 28.6927 326.312 28.1354 326.312 27.625V27.2344L326.25 26.7188L326.203 25.9062C326.203 25.7708 326.266 25.5833 326.391 25.3438C326.526 25.1146 326.604 24.9115 326.625 24.7344C326.625 24.651 326.62 24.5521 326.609 24.4375C326.599 24.3229 326.578 24.2031 326.547 24.0781L326.469 23.4219L326.516 22.8438L326.562 22.2188C326.562 21.9896 326.453 21.7969 326.234 21.6406L325.953 21.5156C325.911 21.5052 325.849 21.4948 325.766 21.4844C325.693 21.4635 325.615 21.4479 325.531 21.4375C325.417 21.4375 325.229 21.526 324.969 21.7031C324.708 21.8698 324.385 22.0312 324 22.1875C323.635 22.3125 323.135 22.375 322.5 22.375C322.125 22.375 321.714 22.2188 321.266 21.9062C320.828 21.5938 320.609 20.9688 320.609 20.0312C320.609 18.8958 320.865 17.8958 321.375 17.0312C321.885 16.1562 322.5 15.4792 323.219 15C323.938 14.5208 324.531 14.2812 325 14.2812ZM337.5 13.6719L337.875 13.8594C338 13.9115 338.115 13.9844 338.219 14.0781C338.281 14.1406 338.318 14.2292 338.328 14.3438L338.344 14.6406L338.359 14.9844C338.359 15.5781 338.073 16.1615 337.5 16.7344L336.797 17.4062L335.875 18.375C335.719 18.5625 335.63 18.724 335.609 18.8594C335.609 18.9531 335.802 19.0365 336.188 19.1094H337.078C337.266 19.1094 337.464 19.1354 337.672 19.1875L338.125 19.3125C338.552 19.4062 339.005 19.6354 339.484 20C339.964 20.3542 340.385 20.9115 340.75 21.6719C341.125 22.4219 341.312 23.3698 341.312 24.5156C341.312 25.7031 340.745 27.5729 339.609 30.125C338.974 31.5833 338.432 32.6927 337.984 33.4531C337.484 34.349 336.792 35.1615 335.906 35.8906C335.021 36.6302 333.984 37 332.797 37C331.568 37 330.615 36.6094 329.938 35.8281C329.26 35.0469 328.672 33.9219 328.172 32.4531L327.844 30.4062L327.531 28.2344C327.531 27.9323 327.646 27.6302 327.875 27.3281C327.99 27.1823 328.099 27.0729 328.203 27C328.307 26.9271 328.427 26.8906 328.562 26.8906C328.948 26.8906 329.203 27.026 329.328 27.2969C329.432 27.5885 329.484 28.0729 329.484 28.75C329.484 28.9375 329.448 29.1562 329.375 29.4062L329.266 30.0625C329.266 30.7292 329.411 31.474 329.703 32.2969C329.984 33.1198 330.422 33.8385 331.016 34.4531C331.609 35.0677 332.307 35.375 333.109 35.375C333.599 35.375 334.167 35.1875 334.812 34.8125C335.458 34.4479 336.115 33.7917 336.781 32.8438C337.104 32.3854 337.401 31.849 337.672 31.2344C337.953 30.6198 338.214 29.9062 338.453 29.0938C338.516 28.875 338.672 28.4844 338.922 27.9219L339.25 27.1406L339.5 26.3906C339.635 25.9115 339.703 25.3802 339.703 24.7969C339.703 21.901 338.266 20.4531 335.391 20.4531C335.172 20.4531 335.021 20.4635 334.938 20.4844L334.516 20.5156L334.172 20.5312L333.781 20.5469C333.385 20.5469 333.172 20.4635 333.141 20.2969C333.141 19.9531 333.26 19.5521 333.5 19.0938C333.75 18.625 334.292 17.9688 335.125 17.125L335.656 16.6406C335.812 16.5156 335.943 16.3698 336.047 16.2031C336.161 16.0365 336.219 15.8542 336.219 15.6562C336.219 15.4375 336.078 15.224 335.797 15.0156C335.526 14.7969 335.229 14.6875 334.906 14.6875C334.312 14.6875 333.859 14.75 333.547 14.875C333.245 15 332.901 15.1719 332.516 15.3906C332.141 15.6094 331.839 15.7188 331.609 15.7188C331.526 15.7188 331.443 15.6615 331.359 15.5469C331.297 15.4323 331.266 15.3177 331.266 15.2031C331.266 14.849 331.448 14.5208 331.812 14.2188C332.177 13.9062 332.682 13.6562 333.328 13.4688C333.974 13.2812 334.682 13.1875 335.453 13.1875C336.234 13.1875 336.917 13.349 337.5 13.6719ZM351.328 0.296875C352.036 0.296875 352.635 0.494792 353.125 0.890625C353.615 1.28646 353.979 1.8125 354.219 2.46875C354.469 3.125 354.594 3.78646 354.594 4.45312C354.594 4.77604 354.573 5.08333 354.531 5.375C354.49 5.65625 354.406 6.01562 354.281 6.45312C354.073 7.22396 353.677 8.05729 353.094 8.95312C352.51 9.84896 351.651 10.724 350.516 11.5781C350.026 11.9531 349.401 12.3385 348.641 12.7344C348.005 13.0573 347.229 13.3802 346.312 13.7031C346.156 14.6615 346.078 15.6302 346.078 16.6094L346.125 17L346.297 17.6406L346.594 18.7812C346.812 19.6562 347.021 20.3594 347.219 20.8906C347.427 21.4219 347.797 21.9271 348.328 22.4062C348.87 22.875 349.583 23.1094 350.469 23.1094C350.854 23.1094 351.307 23.0312 351.828 22.875C352.359 22.7188 352.849 22.3698 353.297 21.8281C353.755 21.276 353.984 20.474 353.984 19.4219C353.984 18.6719 353.818 18.0312 353.484 17.5C353.151 16.9583 352.729 16.5573 352.219 16.2969C351.708 16.0365 351.229 15.9062 350.781 15.9062C350.604 15.9062 350.438 15.9271 350.281 15.9688C350.125 16.0104 349.927 16.0938 349.688 16.2188C349.302 16.3958 348.984 16.625 348.734 16.9062L348.547 17.1562L348.266 17.5938C348.057 17.9375 347.875 18.1094 347.719 18.1094C347.25 18.1094 347.016 17.7708 347.016 17.0938C347.016 16.2083 347.448 15.4948 348.312 14.9531C348.76 14.6823 349.208 14.4792 349.656 14.3438C350.104 14.2083 350.589 14.1406 351.109 14.1406C352.214 14.1406 353.266 14.4792 354.266 15.1562C355.276 15.8333 355.781 17.3333 355.781 19.6562C355.781 20.0521 355.745 20.4531 355.672 20.8594C355.599 21.2656 355.484 21.6719 355.328 22.0781C355.047 22.8594 354.49 23.5365 353.656 24.1094C352.833 24.6823 351.682 24.9688 350.203 24.9688C349.12 24.9688 348.182 24.6667 347.391 24.0625C346.609 23.4479 345.984 22.7135 345.516 21.8594C345.411 21.651 345.318 21.4583 345.234 21.2812C345.151 21.1042 345.062 20.8958 344.969 20.6562L344.688 19.6719L344.578 18.9531C344.578 18.8177 344.526 18.5312 344.422 18.0938L344.25 16.9531L344.188 15.9375C344.188 15.7188 344.208 15.4479 344.25 15.125C344.292 14.8021 344.359 14.4427 344.453 14.0469C344.026 14.1406 343.536 14.1875 342.984 14.1875C342.609 14.1875 342.26 14.1719 341.938 14.1406C341.604 14.1094 341.266 14.0521 340.922 13.9688C340.266 13.8229 339.719 13.6198 339.281 13.3594C338.844 13.0885 338.625 12.7969 338.625 12.4844C338.625 12.1719 338.719 11.7708 338.906 11.2812C339.094 10.7812 339.318 10.5312 339.578 10.5312C339.734 10.5312 339.917 10.6719 340.125 10.9531C340.406 11.3594 340.849 11.6927 341.453 11.9531C342.109 12.1823 342.734 12.2969 343.328 12.2969C343.891 12.2969 344.359 12.2188 344.734 12.0625C344.839 11.0417 344.964 10.0729 345.109 9.15625C345.255 8.22917 345.432 7.33333 345.641 6.46875C346.047 4.80208 346.714 3.35938 347.641 2.14062C348.568 0.911458 349.797 0.296875 351.328 0.296875ZM346.531 11.75C347.51 11.4792 348.458 10.9948 349.375 10.2969C350.292 9.59896 351.052 8.78646 351.656 7.85938C352.271 6.93229 352.578 6.01042 352.578 5.09375C352.578 4.16667 352.422 3.43229 352.109 2.89062C351.797 2.34896 351.422 2.07812 350.984 2.07812C350.495 2.07812 349.974 2.36979 349.422 2.95312C348.88 3.52604 348.401 4.29167 347.984 5.25C347.568 6.19792 347.255 7.28646 347.047 8.51562L346.969 9.26562L346.922 9.89062L346.828 10.5312C346.818 10.625 346.786 10.7656 346.734 10.9531C346.693 11.1406 346.625 11.4062 346.531 11.75ZM362.391 25H359.578V7.84375H362.391V25ZM359.359 3.20312C359.359 2.57812 359.516 2.125 359.828 1.84375C360.151 1.5625 360.547 1.42188 361.016 1.42188C361.453 1.42188 361.833 1.5625 362.156 1.84375C362.49 2.125 362.656 2.57812 362.656 3.20312C362.656 3.81771 362.49 4.27083 362.156 4.5625C361.833 4.85417 361.453 5 361.016 5C360.547 5 360.151 4.85417 359.828 4.5625C359.516 4.27083 359.359 3.81771 359.359 3.20312ZM367.969 14.5625C368.479 14.5625 368.818 14.6823 368.984 14.9219C369.036 15.0052 369.089 15.1562 369.141 15.375C369.203 15.5833 369.234 15.8021 369.234 16.0312L369.219 17.2031L369.203 18.2812L369.219 18.7812L369.234 19.2656C369.557 19.2656 370.12 19.1406 370.922 18.8906C371.724 18.6406 372.312 18.3906 372.688 18.1406C373.073 17.8802 373.318 17.6198 373.422 17.3594L373.531 16.9531L373.656 16.1719C373.708 15.7865 373.823 15.5052 374 15.3281C374.177 15.1406 374.531 15.0469 375.062 15.0469C375.177 15.0469 375.266 15.125 375.328 15.2812L375.625 16.5781C375.771 17.3073 375.948 17.9896 376.156 18.625L376.281 19.1719C376.302 19.276 376.422 19.5521 376.641 20L377.594 21.8281C377.76 22.1302 378.057 22.4167 378.484 22.6875C378.901 22.9271 379.307 23.0469 379.703 23.0469C380.328 23.0469 380.854 22.9219 381.281 22.6719C381.719 22.4219 382.281 22.0573 382.969 21.5781C383.656 21.0885 384.115 20.8438 384.344 20.8438C384.458 20.8438 384.557 20.9062 384.641 21.0312C384.734 21.1458 384.797 21.2812 384.828 21.4375C384.828 21.9375 384.557 22.4479 384.016 22.9688C383.484 23.4792 382.792 23.901 381.938 24.2344C381.083 24.5677 380.266 24.7344 379.484 24.7344C379.078 24.7344 378.734 24.7135 378.453 24.6719C378.172 24.6302 377.885 24.5521 377.594 24.4375C377.115 24.25 376.646 23.8281 376.188 23.1719C375.771 22.5573 375.323 21.5677 374.844 20.2031L374.656 19.5312C374.594 19.2812 374.516 19.0625 374.422 18.875C374.339 18.6875 374.245 18.5938 374.141 18.5938C374.047 18.5938 373.875 18.7188 373.625 18.9688C373.375 19.2188 373.13 19.4167 372.891 19.5625L372.703 19.6406L372.5 19.7188L372.25 19.8438L372 19.9688L371.453 20.2188L370.828 20.3281L369.625 20.5156C369.521 21.1198 369.469 21.651 369.469 22.1094C369.469 22.5573 369.552 22.9844 369.719 23.3906C369.896 23.7969 369.984 24.1927 369.984 24.5781C369.984 24.7969 369.771 24.9062 369.344 24.9062C368.938 24.9062 368.62 24.7865 368.391 24.5469C368.172 24.3073 368.062 23.849 368.062 23.1719V22.1094C368.031 21.8802 367.99 21.7188 367.938 21.625C367.896 21.5312 367.828 21.2552 367.734 20.7969L367.234 20.875L366.75 20.9062C366.083 20.9062 365.75 20.5833 365.75 19.9375C365.75 19.5729 366.052 19.3906 366.656 19.3906L367.641 19.4219L367.672 15.625C367.672 15.4896 367.646 15.3542 367.594 15.2188L367.516 14.8906C367.516 14.8073 367.552 14.7448 367.625 14.7031C367.708 14.651 367.823 14.6042 367.969 14.5625ZM384.297 14.0469C384.38 14.1302 384.422 14.2708 384.422 14.4688L384.406 14.8281L384.391 15.1719V15.9219L384.328 16.4844L384.266 17.6406V18.7188C384.266 19.3333 384.344 20.0052 384.5 20.7344C384.656 21.4635 384.833 21.8281 385.031 21.8281C385.417 21.8281 385.729 21.6562 385.969 21.3125C386.219 20.9583 386.505 20.4062 386.828 19.6562C387.161 18.9062 387.458 18.3906 387.719 18.1094L388.516 17.3438L389.719 16.2812C390.677 15.4792 391.333 15.0781 391.688 15.0781C391.802 15.0781 391.964 15.2031 392.172 15.4531C392.359 15.7031 392.453 15.9062 392.453 16.0625C392.453 16.2188 392.359 16.3906 392.172 16.5781C392.026 16.724 391.771 16.9375 391.406 17.2188L390.344 17.9844L389.797 18.3906L389.547 18.5938L389.328 18.8438C389.245 18.9583 389.146 19.1615 389.031 19.4531C388.948 19.7344 388.906 20.0781 388.906 20.4844C388.906 21.1406 389.078 21.7552 389.422 22.3281C389.766 22.8906 390.479 23.1719 391.562 23.1719C392.302 23.1719 393.026 22.9844 393.734 22.6094C394.453 22.2344 395.042 21.8385 395.5 21.4219C395.958 21.0052 396.427 20.7969 396.906 20.7969C397.021 20.7969 397.135 20.8906 397.25 21.0781L397.344 21.3281L397.375 21.6094C397.375 21.8073 396.958 22.2448 396.125 22.9219C395.844 23.151 395.635 23.3177 395.5 23.4219C395.479 23.4323 395.281 23.5729 394.906 23.8438C394.521 24.0938 394.141 24.3073 393.766 24.4844C393.391 24.6615 392.99 24.7969 392.562 24.8906C392.135 24.9844 391.682 25.0312 391.203 25.0312C390.349 25.0312 389.469 24.776 388.562 24.2656C387.656 23.7448 387.203 22.974 387.203 21.9531C386.422 22.9844 385.828 23.6927 385.422 24.0781C385.016 24.4531 384.661 24.6406 384.359 24.6406C383.932 24.6406 383.651 24.5208 383.516 24.2812C383.391 24.0312 383.281 23.5729 383.188 22.9062C383.104 22.2396 383.005 21.7292 382.891 21.375C382.672 20.75 382.562 20.2812 382.562 19.9688L382.594 19.6094L382.625 19.0781L382.547 18.5938L382.5 18.0469V17.7031L382.562 17.2656L382.656 16.5156V15.5625C382.656 14.8229 382.724 14.3698 382.859 14.2031C382.995 14.0365 383.24 13.9531 383.594 13.9531C383.938 13.9531 384.172 13.9844 384.297 14.0469ZM399.141 11.9688C399.641 11.9688 400.073 12.3021 400.438 12.9688C400.812 13.6354 401 14.776 401 16.3906L400.984 16.9844L400.969 17.5781C400.969 21.099 401.146 22.8594 401.5 22.8594C401.844 22.8594 402.203 22.6719 402.578 22.2969C402.953 21.9219 403.323 21.4167 403.688 20.7812L404.734 18.7812L405.531 17.1875L406.203 15.9531C406.589 15.2031 406.927 14.6719 407.219 14.3594C407.51 14.0052 407.823 13.8281 408.156 13.8281C408.677 13.8281 409.052 14.099 409.281 14.6406C409.521 15.1719 409.719 16.0052 409.875 17.1406C410.031 18.2656 410.141 18.9323 410.203 19.1406L410.516 20.375C410.557 20.5625 410.594 20.7396 410.625 20.9062C410.667 21.0625 410.719 21.2292 410.781 21.4062L411.016 22.0938C411.13 22.4479 411.297 22.7708 411.516 23.0625C411.693 23.3021 411.938 23.4688 412.25 23.5625H412.672C413.203 23.5 413.594 23.3594 413.844 23.1406C414.094 22.9427 414.391 22.6406 414.734 22.2344C415.089 21.8281 415.427 21.5417 415.75 21.375C415.896 21.2917 416.062 21.25 416.25 21.25C416.438 21.25 416.578 21.2917 416.672 21.375C416.818 21.5 416.891 21.7448 416.891 22.1094C416.891 22.3385 416.599 22.724 416.016 23.2656C415.484 23.7656 414.844 24.2604 414.094 24.75C413.385 25.1979 412.911 25.4219 412.672 25.4219C411.422 25.4219 410.505 24.875 409.922 23.7812C409.255 22.3021 408.87 21.375 408.766 21L408.609 19.4375C408.516 18.4375 408.401 17.6458 408.266 17.0625C408.141 16.4688 407.979 16.1719 407.781 16.1719C407.594 16.1719 407.391 16.4688 407.172 17.0625C406.828 17.9688 406.594 18.5156 406.469 18.7031L406.094 19.2031C405.979 19.3177 405.802 19.6615 405.562 20.2344C405.094 21.4219 404.453 22.5156 403.641 23.5156C402.828 24.5052 401.948 25 401 25C400.01 25 399.516 24.3802 399.516 23.1406V21.4375L399.453 19.8594L399.391 17.75L399.359 16.3906V15.4531C399.359 15.1823 399.297 14.8438 399.172 14.4375C399.047 14.0312 398.906 13.8281 398.75 13.8281C398.51 13.8281 398.229 13.901 397.906 14.0469C397.542 14.1823 397.203 14.375 396.891 14.625L396.438 15.0625L396 15.4688C395.927 15.5208 395.823 15.5625 395.688 15.5938C395.5 15.5938 395.318 15.5312 395.141 15.4062C394.953 15.2708 394.854 15.1198 394.844 14.9531C394.844 14.5469 395.156 14.1719 395.781 13.8281C396.188 13.5885 396.573 13.2865 396.938 12.9219C397.26 12.599 397.557 12.3594 397.828 12.2031C398.099 12.0469 398.536 11.9688 399.141 11.9688Z" fill="#E25241"/>
</svg>
